<mxfile host="Electron" agent="Mozilla/5.0 (X11; Linux x86_64) AppleWebKit/537.36 (KHTML, like Gecko) draw.io/26.1.1 Chrome/132.0.6834.210 Electron/34.3.3 Safari/537.36" version="26.1.1">
  <diagram name="Page-1" id="39hm194q-l13xccRxlsW">
    <mxGraphModel dx="5822" dy="2193" grid="1" gridSize="10" guides="1" tooltips="1" connect="1" arrows="1" fold="1" page="1" pageScale="1" pageWidth="827" pageHeight="1169" math="0" shadow="0">
      <root>
        <mxCell id="0" />
        <mxCell id="1" parent="0" />
        <mxCell id="iMFxXNbG9mVQUTvpo4ha-89" style="edgeStyle=orthogonalEdgeStyle;rounded=0;orthogonalLoop=1;jettySize=auto;html=1;entryX=0.25;entryY=0;entryDx=0;entryDy=0;strokeWidth=2;endSize=22;endArrow=diamondThin;endFill=1;fontColor=#FF0000;" parent="1" source="e_NueUDCwhWNqrkMhHox-1" target="iMFxXNbG9mVQUTvpo4ha-80" edge="1">
          <mxGeometry relative="1" as="geometry">
            <Array as="points">
              <mxPoint x="-1350" y="-70" />
            </Array>
          </mxGeometry>
        </mxCell>
        <mxCell id="RKpVfi-_QJKtM7PnYj4Q-41" style="edgeStyle=orthogonalEdgeStyle;rounded=0;orthogonalLoop=1;jettySize=auto;html=1;endArrow=block;endFill=0;strokeWidth=2;endSize=22;fontColor=#FF0000;" parent="1" source="e_NueUDCwhWNqrkMhHox-1" target="iMFxXNbG9mVQUTvpo4ha-42" edge="1">
          <mxGeometry relative="1" as="geometry">
            <Array as="points">
              <mxPoint x="-1590" y="-340" />
            </Array>
          </mxGeometry>
        </mxCell>
        <mxCell id="iwyEC6983UlKEHwNcQ2G-27" style="edgeStyle=orthogonalEdgeStyle;rounded=0;orthogonalLoop=1;jettySize=auto;html=1;strokeWidth=2;endArrow=diamondThin;endFill=1;endSize=22;" parent="1" source="e_NueUDCwhWNqrkMhHox-1" target="iwyEC6983UlKEHwNcQ2G-1" edge="1">
          <mxGeometry relative="1" as="geometry">
            <Array as="points">
              <mxPoint x="-400" y="-110" />
            </Array>
          </mxGeometry>
        </mxCell>
        <mxCell id="iwyEC6983UlKEHwNcQ2G-37" style="edgeStyle=orthogonalEdgeStyle;rounded=0;orthogonalLoop=1;jettySize=auto;html=1;strokeWidth=2;targetPerimeterSpacing=-1;endSize=22;endArrow=diamondThin;endFill=1;" parent="1" source="e_NueUDCwhWNqrkMhHox-1" target="iwyEC6983UlKEHwNcQ2G-28" edge="1">
          <mxGeometry relative="1" as="geometry">
            <Array as="points">
              <mxPoint x="-1600" y="-450" />
            </Array>
          </mxGeometry>
        </mxCell>
        <mxCell id="iwyEC6983UlKEHwNcQ2G-41" style="edgeStyle=orthogonalEdgeStyle;rounded=0;orthogonalLoop=1;jettySize=auto;html=1;endArrow=diamondThin;endFill=1;strokeWidth=2;endSize=22;" parent="1" source="e_NueUDCwhWNqrkMhHox-1" target="iwyEC6983UlKEHwNcQ2G-38" edge="1">
          <mxGeometry relative="1" as="geometry">
            <Array as="points">
              <mxPoint x="-1670" y="-530" />
              <mxPoint x="-1570" y="-530" />
            </Array>
          </mxGeometry>
        </mxCell>
        <mxCell id="iwyEC6983UlKEHwNcQ2G-42" style="edgeStyle=orthogonalEdgeStyle;rounded=0;orthogonalLoop=1;jettySize=auto;html=1;strokeWidth=2;endArrow=diamondThin;endFill=1;endSize=22;" parent="1" source="e_NueUDCwhWNqrkMhHox-1" target="7S8ZCQFVZ5OZvFziOqp5-1" edge="1">
          <mxGeometry relative="1" as="geometry">
            <Array as="points">
              <mxPoint x="-1690" y="-720" />
              <mxPoint x="-2480" y="-720" />
              <mxPoint x="-2480" y="-940" />
            </Array>
          </mxGeometry>
        </mxCell>
        <mxCell id="e_NueUDCwhWNqrkMhHox-1" value="&lt;b&gt;ControlApiDbContext&lt;/b&gt;" style="swimlane;fontStyle=0;childLayout=stackLayout;horizontal=1;startSize=30;horizontalStack=0;resizeParent=1;resizeParentMax=0;resizeLast=0;collapsible=1;marginBottom=0;whiteSpace=wrap;html=1;align=center;labelBackgroundColor=none;fontColor=default;strokeColor=default;" parent="1" vertex="1">
          <mxGeometry x="-1780" y="-230" width="260" height="210" as="geometry" />
        </mxCell>
        <mxCell id="e_NueUDCwhWNqrkMhHox-4" value="&lt;span style=&quot;font-family: Helvetica; font-size: 12px; font-style: normal; font-variant-ligatures: normal; font-variant-caps: normal; font-weight: 400; letter-spacing: normal; orphans: 2; text-align: left; text-indent: 0px; text-transform: none; widows: 2; word-spacing: 0px; -webkit-text-stroke-width: 0px; white-space: normal; text-decoration-thickness: initial; text-decoration-style: initial; text-decoration-color: initial; float: none; display: inline !important;&quot;&gt;+users: DbSet&amp;lt;User&amp;gt;&lt;/span&gt;" style="text;whiteSpace=wrap;html=1;labelBackgroundColor=none;fontColor=default;strokeColor=default;" parent="e_NueUDCwhWNqrkMhHox-1" vertex="1">
          <mxGeometry y="30" width="260" height="30" as="geometry" />
        </mxCell>
        <mxCell id="e_NueUDCwhWNqrkMhHox-7" value="&lt;span style=&quot;font-family: Helvetica; font-size: 12px; font-style: normal; font-variant-ligatures: normal; font-variant-caps: normal; font-weight: 400; letter-spacing: normal; orphans: 2; text-align: left; text-indent: 0px; text-transform: none; widows: 2; word-spacing: 0px; -webkit-text-stroke-width: 0px; white-space: normal; text-decoration-thickness: initial; text-decoration-style: initial; text-decoration-color: initial; float: none; display: inline !important;&quot;&gt;+detections: DbSet&amp;lt;Detection&amp;gt;&lt;/span&gt;" style="text;whiteSpace=wrap;html=1;labelBackgroundColor=none;fontColor=default;strokeColor=default;" parent="e_NueUDCwhWNqrkMhHox-1" vertex="1">
          <mxGeometry y="60" width="260" height="30" as="geometry" />
        </mxCell>
        <mxCell id="e_NueUDCwhWNqrkMhHox-9" value="&lt;span style=&quot;font-family: Helvetica; font-size: 12px; font-style: normal; font-variant-ligatures: normal; font-variant-caps: normal; font-weight: 400; letter-spacing: normal; orphans: 2; text-align: left; text-indent: 0px; text-transform: none; widows: 2; word-spacing: 0px; -webkit-text-stroke-width: 0px; white-space: normal; text-decoration-thickness: initial; text-decoration-style: initial; text-decoration-color: initial; float: none; display: inline !important;&quot;&gt;+predictions: DbSet&amp;lt;Prediction&amp;gt;&lt;/span&gt;" style="text;whiteSpace=wrap;html=1;labelBackgroundColor=none;fontColor=default;strokeColor=default;" parent="e_NueUDCwhWNqrkMhHox-1" vertex="1">
          <mxGeometry y="90" width="260" height="30" as="geometry" />
        </mxCell>
        <mxCell id="e_NueUDCwhWNqrkMhHox-5" value="&lt;span style=&quot;font-family: Helvetica; font-size: 12px; font-style: normal; font-variant-ligatures: normal; font-variant-caps: normal; font-weight: 400; letter-spacing: normal; orphans: 2; text-align: left; text-indent: 0px; text-transform: none; widows: 2; word-spacing: 0px; -webkit-text-stroke-width: 0px; white-space: normal; text-decoration-thickness: initial; text-decoration-style: initial; text-decoration-color: initial; float: none; display: inline !important;&quot;&gt;+POIs: DbSet&amp;lt;POI&amp;gt;&lt;/span&gt;" style="text;whiteSpace=wrap;html=1;labelBackgroundColor=none;fontColor=default;strokeColor=default;" parent="e_NueUDCwhWNqrkMhHox-1" vertex="1">
          <mxGeometry y="120" width="260" height="30" as="geometry" />
        </mxCell>
        <mxCell id="e_NueUDCwhWNqrkMhHox-3" value="&lt;span style=&quot;font-family: Helvetica; font-size: 12px; font-style: normal; font-variant-ligatures: normal; font-variant-caps: normal; font-weight: 400; letter-spacing: normal; orphans: 2; text-align: left; text-indent: 0px; text-transform: none; widows: 2; word-spacing: 0px; -webkit-text-stroke-width: 0px; white-space: normal; text-decoration-thickness: initial; text-decoration-style: initial; text-decoration-color: initial; float: none; display: inline !important;&quot;&gt;+detectionPOIs: DbSet&amp;lt;detectionPOIs&amp;gt;&lt;/span&gt;" style="text;whiteSpace=wrap;html=1;labelBackgroundColor=none;fontColor=default;strokeColor=default;" parent="e_NueUDCwhWNqrkMhHox-1" vertex="1">
          <mxGeometry y="150" width="260" height="30" as="geometry" />
        </mxCell>
        <mxCell id="e_NueUDCwhWNqrkMhHox-2" value="&lt;span style=&quot;font-family: Helvetica; font-size: 12px; font-style: normal; font-variant-ligatures: normal; font-variant-caps: normal; font-weight: 400; letter-spacing: normal; orphans: 2; text-align: left; text-indent: 0px; text-transform: none; widows: 2; word-spacing: 0px; -webkit-text-stroke-width: 0px; white-space: normal; text-decoration-thickness: initial; text-decoration-style: initial; text-decoration-color: initial; float: none; display: inline !important;&quot;&gt;OnModelCreating(ModelBuilder): void&lt;/span&gt;" style="text;whiteSpace=wrap;html=1;labelBackgroundColor=none;fontColor=default;strokeColor=default;" parent="e_NueUDCwhWNqrkMhHox-1" vertex="1">
          <mxGeometry y="180" width="260" height="30" as="geometry" />
        </mxCell>
        <mxCell id="iMFxXNbG9mVQUTvpo4ha-94" style="edgeStyle=orthogonalEdgeStyle;rounded=0;orthogonalLoop=1;jettySize=auto;html=1;entryX=0;entryY=0.5;entryDx=0;entryDy=0;endArrow=diamondThin;endFill=1;strokeWidth=2;endSize=22;fontColor=#FF0000;" parent="1" source="e_NueUDCwhWNqrkMhHox-14" target="iMFxXNbG9mVQUTvpo4ha-81" edge="1">
          <mxGeometry relative="1" as="geometry" />
        </mxCell>
        <mxCell id="iMFxXNbG9mVQUTvpo4ha-97" style="edgeStyle=orthogonalEdgeStyle;rounded=0;orthogonalLoop=1;jettySize=auto;html=1;strokeWidth=2;fillColor=#60a917;strokeColor=#2D7600;endArrow=diamondThin;endFill=1;endSize=22;labelBackgroundColor=none;fontColor=#FF0000;" parent="1" source="e_NueUDCwhWNqrkMhHox-14" target="e_NueUDCwhWNqrkMhHox-1" edge="1">
          <mxGeometry relative="1" as="geometry">
            <Array as="points">
              <mxPoint x="-1540" y="190" />
              <mxPoint x="-1470" y="190" />
              <mxPoint x="-1470" y="40" />
              <mxPoint x="-1650" y="40" />
            </Array>
          </mxGeometry>
        </mxCell>
        <mxCell id="iwyEC6983UlKEHwNcQ2G-26" style="edgeStyle=orthogonalEdgeStyle;rounded=0;orthogonalLoop=1;jettySize=auto;html=1;strokeWidth=2;endArrow=diamondThin;endFill=1;targetPerimeterSpacing=1;endSize=22;" parent="1" source="e_NueUDCwhWNqrkMhHox-14" target="iwyEC6983UlKEHwNcQ2G-1" edge="1">
          <mxGeometry relative="1" as="geometry">
            <Array as="points">
              <mxPoint x="-1870" y="340" />
              <mxPoint x="-1870" y="480" />
              <mxPoint x="-400" y="480" />
            </Array>
          </mxGeometry>
        </mxCell>
        <mxCell id="e_NueUDCwhWNqrkMhHox-14" value="&lt;b&gt;User&lt;/b&gt;" style="swimlane;fontStyle=0;childLayout=stackLayout;horizontal=1;startSize=30;horizontalStack=0;resizeParent=1;resizeParentMax=0;resizeLast=0;collapsible=1;marginBottom=0;whiteSpace=wrap;html=1;align=center;labelBackgroundColor=none;fontColor=default;" parent="1" vertex="1">
          <mxGeometry x="-1780" y="210" width="260" height="150" as="geometry" />
        </mxCell>
        <mxCell id="e_NueUDCwhWNqrkMhHox-16" value="&lt;span style=&quot;font-family: Helvetica; font-size: 12px; font-style: normal; font-variant-ligatures: normal; font-variant-caps: normal; font-weight: 400; letter-spacing: normal; orphans: 2; text-align: left; text-indent: 0px; text-transform: none; widows: 2; word-spacing: 0px; -webkit-text-stroke-width: 0px; white-space: normal; text-decoration-thickness: initial; text-decoration-style: initial; text-decoration-color: initial; float: none; display: inline !important;&quot;&gt;+userId: int&lt;/span&gt;" style="text;whiteSpace=wrap;html=1;labelBackgroundColor=none;fontColor=default;" parent="e_NueUDCwhWNqrkMhHox-14" vertex="1">
          <mxGeometry y="30" width="260" height="30" as="geometry" />
        </mxCell>
        <mxCell id="e_NueUDCwhWNqrkMhHox-17" value="&lt;span style=&quot;font-family: Helvetica; font-size: 12px; font-style: normal; font-variant-ligatures: normal; font-variant-caps: normal; font-weight: 400; letter-spacing: normal; orphans: 2; text-align: left; text-indent: 0px; text-transform: none; widows: 2; word-spacing: 0px; -webkit-text-stroke-width: 0px; white-space: normal; text-decoration-thickness: initial; text-decoration-style: initial; text-decoration-color: initial; float: none; display: inline !important;&quot;&gt;+email: string&lt;/span&gt;" style="text;whiteSpace=wrap;html=1;labelBackgroundColor=none;fontColor=default;" parent="e_NueUDCwhWNqrkMhHox-14" vertex="1">
          <mxGeometry y="60" width="260" height="30" as="geometry" />
        </mxCell>
        <mxCell id="e_NueUDCwhWNqrkMhHox-18" value="&lt;span style=&quot;font-family: Helvetica; font-size: 12px; font-style: normal; font-variant-ligatures: normal; font-variant-caps: normal; font-weight: 400; letter-spacing: normal; orphans: 2; text-align: left; text-indent: 0px; text-transform: none; widows: 2; word-spacing: 0px; -webkit-text-stroke-width: 0px; white-space: normal; text-decoration-thickness: initial; text-decoration-style: initial; text-decoration-color: initial; float: none; display: inline !important;&quot;&gt;+passwordHash: string&lt;/span&gt;" style="text;whiteSpace=wrap;html=1;labelBackgroundColor=none;fontColor=default;" parent="e_NueUDCwhWNqrkMhHox-14" vertex="1">
          <mxGeometry y="90" width="260" height="30" as="geometry" />
        </mxCell>
        <mxCell id="e_NueUDCwhWNqrkMhHox-15" value="&lt;span style=&quot;font-family: Helvetica; font-size: 12px; font-style: normal; font-variant-ligatures: normal; font-variant-caps: normal; font-weight: 400; letter-spacing: normal; orphans: 2; text-align: left; text-indent: 0px; text-transform: none; widows: 2; word-spacing: 0px; -webkit-text-stroke-width: 0px; white-space: normal; text-decoration-thickness: initial; text-decoration-style: initial; text-decoration-color: initial; float: none; display: inline !important;&quot;&gt;+createdAt: DateTime&lt;/span&gt;" style="text;whiteSpace=wrap;html=1;labelBackgroundColor=none;fontColor=default;" parent="e_NueUDCwhWNqrkMhHox-14" vertex="1">
          <mxGeometry y="120" width="260" height="30" as="geometry" />
        </mxCell>
        <mxCell id="RKpVfi-_QJKtM7PnYj4Q-15" style="edgeStyle=orthogonalEdgeStyle;rounded=0;orthogonalLoop=1;jettySize=auto;html=1;endSize=22;endArrow=diamondThin;endFill=0;strokeWidth=2;fontColor=#FF0000;" parent="1" source="e_NueUDCwhWNqrkMhHox-25" target="iMFxXNbG9mVQUTvpo4ha-104" edge="1">
          <mxGeometry relative="1" as="geometry" />
        </mxCell>
        <mxCell id="RKpVfi-_QJKtM7PnYj4Q-18" style="edgeStyle=orthogonalEdgeStyle;rounded=0;orthogonalLoop=1;jettySize=auto;html=1;strokeWidth=2;endArrow=diamondThin;endFill=1;endSize=22;fontColor=#FF0000;" parent="1" source="e_NueUDCwhWNqrkMhHox-25" target="e_NueUDCwhWNqrkMhHox-1" edge="1">
          <mxGeometry relative="1" as="geometry">
            <Array as="points">
              <mxPoint x="-2730" y="-630" />
              <mxPoint x="-1720" y="-630" />
            </Array>
          </mxGeometry>
        </mxCell>
        <mxCell id="7S8ZCQFVZ5OZvFziOqp5-8" style="edgeStyle=orthogonalEdgeStyle;rounded=0;orthogonalLoop=1;jettySize=auto;html=1;strokeWidth=2;endArrow=diamondThin;endFill=1;endSize=22;fillColor=#60a917;strokeColor=#2D7600;" parent="1" source="e_NueUDCwhWNqrkMhHox-25" target="7S8ZCQFVZ5OZvFziOqp5-1" edge="1">
          <mxGeometry relative="1" as="geometry" />
        </mxCell>
        <mxCell id="e_NueUDCwhWNqrkMhHox-25" value="Prediction" style="swimlane;childLayout=stackLayout;horizontal=1;startSize=30;horizontalStack=0;resizeParent=1;resizeParentMax=0;resizeLast=0;collapsible=1;marginBottom=0;whiteSpace=wrap;html=1;align=center;fontColor=default;" parent="1" vertex="1">
          <mxGeometry x="-2860" y="-570" width="260" height="210" as="geometry" />
        </mxCell>
        <mxCell id="e_NueUDCwhWNqrkMhHox-26" value="+predictionId: int&#xa;" style="text;whiteSpace=wrap;html=1;fontColor=default;" parent="e_NueUDCwhWNqrkMhHox-25" vertex="1">
          <mxGeometry y="30" width="260" height="30" as="geometry" />
        </mxCell>
        <mxCell id="e_NueUDCwhWNqrkMhHox-27" value="+detectionId: int&#xa;" style="text;whiteSpace=wrap;html=1;fontColor=default;" parent="e_NueUDCwhWNqrkMhHox-25" vertex="1">
          <mxGeometry y="60" width="260" height="30" as="geometry" />
        </mxCell>
        <mxCell id="e_NueUDCwhWNqrkMhHox-28" value="+predictedFor: DateTime&#xa;" style="text;whiteSpace=wrap;html=1;fontColor=default;" parent="e_NueUDCwhWNqrkMhHox-25" vertex="1">
          <mxGeometry y="90" width="260" height="30" as="geometry" />
        </mxCell>
        <mxCell id="e_NueUDCwhWNqrkMhHox-30" value="+modelVersion: string&#xa;" style="text;whiteSpace=wrap;html=1;fontColor=default;" parent="e_NueUDCwhWNqrkMhHox-25" vertex="1">
          <mxGeometry y="120" width="260" height="30" as="geometry" />
        </mxCell>
        <mxCell id="e_NueUDCwhWNqrkMhHox-32" value="+confidence: string" style="text;whiteSpace=wrap;html=1;fontColor=default;" parent="e_NueUDCwhWNqrkMhHox-25" vertex="1">
          <mxGeometry y="150" width="260" height="30" as="geometry" />
        </mxCell>
        <mxCell id="e_NueUDCwhWNqrkMhHox-31" value="+detection:&amp;nbsp;Detection?" style="text;whiteSpace=wrap;html=1;fontColor=default;" parent="e_NueUDCwhWNqrkMhHox-25" vertex="1">
          <mxGeometry y="180" width="260" height="30" as="geometry" />
        </mxCell>
        <mxCell id="RKpVfi-_QJKtM7PnYj4Q-28" style="edgeStyle=orthogonalEdgeStyle;rounded=0;orthogonalLoop=1;jettySize=auto;html=1;endArrow=diamondThin;startFill=0;strokeWidth=2;endFill=1;endSize=22;fontColor=#FF0000;" parent="1" source="e_NueUDCwhWNqrkMhHox-42" edge="1">
          <mxGeometry relative="1" as="geometry">
            <mxPoint x="-1720" y="-230" as="targetPoint" />
            <Array as="points">
              <mxPoint x="-3250" y="-630" />
              <mxPoint x="-1720" y="-630" />
              <mxPoint x="-1720" y="-230" />
            </Array>
          </mxGeometry>
        </mxCell>
        <mxCell id="RKpVfi-_QJKtM7PnYj4Q-29" style="edgeStyle=orthogonalEdgeStyle;rounded=0;orthogonalLoop=1;jettySize=auto;html=1;entryX=0.5;entryY=0;entryDx=0;entryDy=0;strokeWidth=2;endSize=22;endArrow=diamondThin;endFill=0;fontColor=#FF0000;" parent="1" source="e_NueUDCwhWNqrkMhHox-42" target="iMFxXNbG9mVQUTvpo4ha-112" edge="1">
          <mxGeometry relative="1" as="geometry">
            <Array as="points">
              <mxPoint x="-3220" y="60" />
              <mxPoint x="-3170" y="60" />
            </Array>
          </mxGeometry>
        </mxCell>
        <mxCell id="iwyEC6983UlKEHwNcQ2G-77" style="edgeStyle=orthogonalEdgeStyle;rounded=0;orthogonalLoop=1;jettySize=auto;html=1;fillColor=#0050ef;strokeColor=#001DBC;strokeWidth=2;endArrow=diamondThin;endFill=1;endSize=22;" parent="1" source="e_NueUDCwhWNqrkMhHox-42" target="iwyEC6983UlKEHwNcQ2G-38" edge="1">
          <mxGeometry relative="1" as="geometry">
            <Array as="points">
              <mxPoint x="-3160" y="-660" />
              <mxPoint x="-1600" y="-660" />
            </Array>
          </mxGeometry>
        </mxCell>
        <mxCell id="e_NueUDCwhWNqrkMhHox-42" value="POI" style="swimlane;childLayout=stackLayout;horizontal=1;startSize=30;horizontalStack=0;resizeParent=1;resizeParentMax=0;resizeLast=0;collapsible=1;marginBottom=0;whiteSpace=wrap;html=1;align=center;fontColor=default;" parent="1" vertex="1">
          <mxGeometry x="-3380" y="-390" width="260" height="300" as="geometry" />
        </mxCell>
        <mxCell id="e_NueUDCwhWNqrkMhHox-43" value="+POIID: int" style="text;whiteSpace=wrap;html=1;fontColor=default;" parent="e_NueUDCwhWNqrkMhHox-42" vertex="1">
          <mxGeometry y="30" width="260" height="30" as="geometry" />
        </mxCell>
        <mxCell id="e_NueUDCwhWNqrkMhHox-44" value="+category: int" style="text;whiteSpace=wrap;html=1;fontColor=default;" parent="e_NueUDCwhWNqrkMhHox-42" vertex="1">
          <mxGeometry y="60" width="260" height="30" as="geometry" />
        </mxCell>
        <mxCell id="e_NueUDCwhWNqrkMhHox-45" value="+osmId: int" style="text;whiteSpace=wrap;html=1;fontColor=default;" parent="e_NueUDCwhWNqrkMhHox-42" vertex="1">
          <mxGeometry y="90" width="260" height="30" as="geometry" />
        </mxCell>
        <mxCell id="e_NueUDCwhWNqrkMhHox-47" value="+name: string?" style="text;whiteSpace=wrap;html=1;fontColor=default;" parent="e_NueUDCwhWNqrkMhHox-42" vertex="1">
          <mxGeometry y="120" width="260" height="30" as="geometry" />
        </mxCell>
        <mxCell id="e_NueUDCwhWNqrkMhHox-48" value="+latitude: float" style="text;whiteSpace=wrap;html=1;fontColor=default;" parent="e_NueUDCwhWNqrkMhHox-42" vertex="1">
          <mxGeometry y="150" width="260" height="30" as="geometry" />
        </mxCell>
        <mxCell id="e_NueUDCwhWNqrkMhHox-50" value="+longitude:&amp;nbsp;float" style="text;whiteSpace=wrap;html=1;fontColor=default;" parent="e_NueUDCwhWNqrkMhHox-42" vertex="1">
          <mxGeometry y="180" width="260" height="30" as="geometry" />
        </mxCell>
        <mxCell id="e_NueUDCwhWNqrkMhHox-53" value="+source:&amp;nbsp;string" style="text;whiteSpace=wrap;html=1;fontColor=default;" parent="e_NueUDCwhWNqrkMhHox-42" vertex="1">
          <mxGeometry y="210" width="260" height="30" as="geometry" />
        </mxCell>
        <mxCell id="e_NueUDCwhWNqrkMhHox-54" value="+retrievedAt:&amp;nbsp;DateTime" style="text;whiteSpace=wrap;html=1;fontColor=default;" parent="e_NueUDCwhWNqrkMhHox-42" vertex="1">
          <mxGeometry y="240" width="260" height="30" as="geometry" />
        </mxCell>
        <mxCell id="e_NueUDCwhWNqrkMhHox-49" value="+detectionPOIs:&amp;nbsp;ICollection" style="text;whiteSpace=wrap;html=1;fontColor=default;" parent="e_NueUDCwhWNqrkMhHox-42" vertex="1">
          <mxGeometry y="270" width="260" height="30" as="geometry" />
        </mxCell>
        <mxCell id="RKpVfi-_QJKtM7PnYj4Q-19" style="edgeStyle=orthogonalEdgeStyle;rounded=0;orthogonalLoop=1;jettySize=auto;html=1;endArrow=diamondThin;endFill=0;strokeWidth=2;endSize=22;fillColor=#60a917;strokeColor=#2D7600;fontColor=#FF0000;" parent="1" source="iMFxXNbG9mVQUTvpo4ha-1" target="iMFxXNbG9mVQUTvpo4ha-108" edge="1">
          <mxGeometry relative="1" as="geometry" />
        </mxCell>
        <mxCell id="RKpVfi-_QJKtM7PnYj4Q-25" style="edgeStyle=orthogonalEdgeStyle;rounded=0;orthogonalLoop=1;jettySize=auto;html=1;endArrow=diamondThin;endFill=1;strokeWidth=2;endSize=22;fontColor=#FF0000;" parent="1" source="iMFxXNbG9mVQUTvpo4ha-1" target="e_NueUDCwhWNqrkMhHox-1" edge="1">
          <mxGeometry relative="1" as="geometry">
            <Array as="points">
              <mxPoint x="-2370" y="-630" />
              <mxPoint x="-1720" y="-630" />
            </Array>
          </mxGeometry>
        </mxCell>
        <mxCell id="iwyEC6983UlKEHwNcQ2G-76" style="edgeStyle=orthogonalEdgeStyle;rounded=0;orthogonalLoop=1;jettySize=auto;html=1;fillColor=#0050ef;strokeColor=#001DBC;strokeWidth=2;endArrow=diamondThin;endFill=1;endSize=22;" parent="1" source="iMFxXNbG9mVQUTvpo4ha-1" target="iwyEC6983UlKEHwNcQ2G-38" edge="1">
          <mxGeometry relative="1" as="geometry">
            <Array as="points">
              <mxPoint x="-2260" y="-660" />
              <mxPoint x="-1600" y="-660" />
            </Array>
          </mxGeometry>
        </mxCell>
        <mxCell id="iMFxXNbG9mVQUTvpo4ha-1" value="DetectionPOI" style="swimlane;childLayout=stackLayout;horizontal=1;startSize=30;horizontalStack=0;resizeParent=1;resizeParentMax=0;resizeLast=0;collapsible=1;marginBottom=0;whiteSpace=wrap;html=1;align=center;fontColor=default;" parent="1" vertex="1">
          <mxGeometry x="-2500" y="-420" width="260" height="210" as="geometry" />
        </mxCell>
        <mxCell id="iMFxXNbG9mVQUTvpo4ha-2" value="+detectionId: int" style="text;whiteSpace=wrap;html=1;fontColor=default;" parent="iMFxXNbG9mVQUTvpo4ha-1" vertex="1">
          <mxGeometry y="30" width="260" height="30" as="geometry" />
        </mxCell>
        <mxCell id="iMFxXNbG9mVQUTvpo4ha-3" value="+POIID: int" style="text;whiteSpace=wrap;html=1;fontColor=default;" parent="iMFxXNbG9mVQUTvpo4ha-1" vertex="1">
          <mxGeometry y="60" width="260" height="30" as="geometry" />
        </mxCell>
        <mxCell id="iMFxXNbG9mVQUTvpo4ha-4" value="+detectionRadiusM&lt;span style=&quot;background-color: transparent;&quot;&gt;: float&lt;/span&gt;" style="text;whiteSpace=wrap;html=1;fontColor=default;" parent="iMFxXNbG9mVQUTvpo4ha-1" vertex="1">
          <mxGeometry y="90" width="260" height="30" as="geometry" />
        </mxCell>
        <mxCell id="iMFxXNbG9mVQUTvpo4ha-5" value="+timestamp: DateTime" style="text;whiteSpace=wrap;html=1;fontColor=default;" parent="iMFxXNbG9mVQUTvpo4ha-1" vertex="1">
          <mxGeometry y="120" width="260" height="30" as="geometry" />
        </mxCell>
        <mxCell id="iMFxXNbG9mVQUTvpo4ha-6" value="+detection:&amp;nbsp;Detection?" style="text;whiteSpace=wrap;html=1;fontColor=default;" parent="iMFxXNbG9mVQUTvpo4ha-1" vertex="1">
          <mxGeometry y="150" width="260" height="30" as="geometry" />
        </mxCell>
        <mxCell id="iMFxXNbG9mVQUTvpo4ha-7" value="+POI:&amp;nbsp;POI?" style="text;whiteSpace=wrap;html=1;fontColor=default;" parent="iMFxXNbG9mVQUTvpo4ha-1" vertex="1">
          <mxGeometry y="180" width="260" height="30" as="geometry" />
        </mxCell>
        <mxCell id="RKpVfi-_QJKtM7PnYj4Q-11" style="edgeStyle=orthogonalEdgeStyle;rounded=0;orthogonalLoop=1;jettySize=auto;html=1;entryX=1;entryY=0;entryDx=0;entryDy=0;endArrow=diamondThin;endFill=0;strokeColor=default;endSize=22;strokeWidth=2;fontColor=#FF0000;" parent="1" source="iMFxXNbG9mVQUTvpo4ha-14" target="iMFxXNbG9mVQUTvpo4ha-107" edge="1">
          <mxGeometry relative="1" as="geometry">
            <Array as="points">
              <mxPoint x="-2630" y="-160" />
              <mxPoint x="-2630" y="10" />
            </Array>
          </mxGeometry>
        </mxCell>
        <mxCell id="RKpVfi-_QJKtM7PnYj4Q-12" style="edgeStyle=orthogonalEdgeStyle;rounded=0;orthogonalLoop=1;jettySize=auto;html=1;strokeWidth=2;endSize=22;endArrow=diamondThin;endFill=1;startSize=22;startArrow=diamondThin;startFill=1;fontColor=#FF0000;" parent="1" source="iMFxXNbG9mVQUTvpo4ha-14" target="iMFxXNbG9mVQUTvpo4ha-1" edge="1">
          <mxGeometry relative="1" as="geometry">
            <Array as="points">
              <mxPoint x="-2200" y="-240" />
              <mxPoint x="-2200" y="-315" />
            </Array>
          </mxGeometry>
        </mxCell>
        <mxCell id="RKpVfi-_QJKtM7PnYj4Q-24" style="edgeStyle=orthogonalEdgeStyle;rounded=0;orthogonalLoop=1;jettySize=auto;html=1;startArrow=diamondThin;startFill=1;strokeWidth=2;startSize=22;fillColor=#60a917;strokeColor=#2D7600;endArrow=diamondThin;endFill=1;endSize=22;fontColor=#FF0000;" parent="1" source="iMFxXNbG9mVQUTvpo4ha-1" target="e_NueUDCwhWNqrkMhHox-42" edge="1">
          <mxGeometry relative="1" as="geometry">
            <Array as="points">
              <mxPoint x="-2550" y="-260" />
              <mxPoint x="-2550" y="-195" />
            </Array>
          </mxGeometry>
        </mxCell>
        <mxCell id="iwyEC6983UlKEHwNcQ2G-65" style="edgeStyle=orthogonalEdgeStyle;rounded=0;orthogonalLoop=1;jettySize=auto;html=1;endArrow=diamondThin;endFill=0;strokeWidth=2;endSize=22;" parent="1" source="iMFxXNbG9mVQUTvpo4ha-14" target="iwyEC6983UlKEHwNcQ2G-44" edge="1">
          <mxGeometry relative="1" as="geometry">
            <Array as="points">
              <mxPoint x="-1870" y="-350" />
              <mxPoint x="-1870" y="-350" />
            </Array>
          </mxGeometry>
        </mxCell>
        <mxCell id="iwyEC6983UlKEHwNcQ2G-66" style="edgeStyle=orthogonalEdgeStyle;rounded=0;orthogonalLoop=1;jettySize=auto;html=1;fillColor=#60a917;strokeColor=#2D7600;strokeWidth=2;endArrow=block;endFill=0;endSize=22;" parent="1" source="iMFxXNbG9mVQUTvpo4ha-14" target="iwyEC6983UlKEHwNcQ2G-46" edge="1">
          <mxGeometry relative="1" as="geometry">
            <Array as="points">
              <mxPoint x="-2040" y="-540" />
              <mxPoint x="-2290" y="-540" />
            </Array>
          </mxGeometry>
        </mxCell>
        <mxCell id="iwyEC6983UlKEHwNcQ2G-68" style="edgeStyle=orthogonalEdgeStyle;rounded=0;orthogonalLoop=1;jettySize=auto;html=1;fillColor=#60a917;strokeColor=#2D7600;endArrow=diamondThin;endFill=1;strokeWidth=2;endSize=22;" parent="1" source="iMFxXNbG9mVQUTvpo4ha-14" target="iwyEC6983UlKEHwNcQ2G-38" edge="1">
          <mxGeometry relative="1" as="geometry">
            <Array as="points">
              <mxPoint x="-1900" y="-420" />
              <mxPoint x="-1680" y="-420" />
              <mxPoint x="-1680" y="-550" />
              <mxPoint x="-1630" y="-550" />
            </Array>
          </mxGeometry>
        </mxCell>
        <mxCell id="iMFxXNbG9mVQUTvpo4ha-14" value="Detection" style="swimlane;childLayout=stackLayout;horizontal=1;startSize=30;horizontalStack=0;resizeParent=1;resizeParentMax=0;resizeLast=0;collapsible=1;marginBottom=0;whiteSpace=wrap;html=1;align=center;fontColor=default;" parent="1" vertex="1">
          <mxGeometry x="-2100" y="-290" width="260" height="90" as="geometry" />
        </mxCell>
        <mxCell id="iMFxXNbG9mVQUTvpo4ha-26" value="+predictions:&amp;nbsp;ICollection&amp;lt;Prediction&amp;gt;" style="text;whiteSpace=wrap;html=1;fontColor=default;" parent="iMFxXNbG9mVQUTvpo4ha-14" vertex="1">
          <mxGeometry y="30" width="260" height="30" as="geometry" />
        </mxCell>
        <mxCell id="iMFxXNbG9mVQUTvpo4ha-27" value="+detectionPOIs:&amp;nbsp;ICollection&amp;lt;DetectionPOI&amp;gt;" style="text;whiteSpace=wrap;html=1;fontColor=default;" parent="iMFxXNbG9mVQUTvpo4ha-14" vertex="1">
          <mxGeometry y="60" width="260" height="30" as="geometry" />
        </mxCell>
        <mxCell id="iMFxXNbG9mVQUTvpo4ha-42" value="DbContext" style="swimlane;childLayout=stackLayout;horizontal=1;startSize=30;horizontalStack=0;resizeParent=1;resizeParentMax=0;resizeLast=0;collapsible=1;marginBottom=0;whiteSpace=wrap;html=1;align=center;fillColor=#f5f5f5;gradientColor=#b3b3b3;strokeColor=#666666;fontColor=#000000;" parent="1" vertex="1">
          <mxGeometry x="-1440" y="-360" width="260" height="60" as="geometry" />
        </mxCell>
        <mxCell id="RKpVfi-_QJKtM7PnYj4Q-40" style="edgeStyle=orthogonalEdgeStyle;rounded=0;orthogonalLoop=1;jettySize=auto;html=1;endArrow=diamondThin;endFill=0;strokeWidth=2;endSize=22;fontColor=#FF0000;" parent="1" source="iMFxXNbG9mVQUTvpo4ha-43" target="e_NueUDCwhWNqrkMhHox-1" edge="1">
          <mxGeometry relative="1" as="geometry">
            <Array as="points">
              <mxPoint x="-1500" y="-200" />
              <mxPoint x="-1500" y="-200" />
            </Array>
          </mxGeometry>
        </mxCell>
        <mxCell id="iMFxXNbG9mVQUTvpo4ha-43" value="DbContextOptions" style="swimlane;childLayout=stackLayout;horizontal=1;startSize=30;horizontalStack=0;resizeParent=1;resizeParentMax=0;resizeLast=0;collapsible=1;marginBottom=0;whiteSpace=wrap;html=1;align=center;fillColor=#f5f5f5;gradientColor=#b3b3b3;strokeColor=#666666;fontColor=#000000;" parent="1" vertex="1">
          <mxGeometry x="-1440" y="-230" width="260" height="60" as="geometry" />
        </mxCell>
        <mxCell id="iMFxXNbG9mVQUTvpo4ha-93" style="edgeStyle=orthogonalEdgeStyle;rounded=0;orthogonalLoop=1;jettySize=auto;html=1;strokeWidth=2;endArrow=none;endFill=0;startArrow=diamondThin;startFill=0;startSize=22;exitX=1;exitY=0.25;exitDx=0;exitDy=0;fontColor=#FF0000;" parent="1" source="iMFxXNbG9mVQUTvpo4ha-50" target="e_NueUDCwhWNqrkMhHox-14" edge="1">
          <mxGeometry relative="1" as="geometry">
            <Array as="points">
              <mxPoint x="-1830" y="188" />
              <mxPoint x="-1830" y="240" />
            </Array>
          </mxGeometry>
        </mxCell>
        <mxCell id="iMFxXNbG9mVQUTvpo4ha-44" value="JwtService" style="swimlane;childLayout=stackLayout;horizontal=1;startSize=30;horizontalStack=0;resizeParent=1;resizeParentMax=0;resizeLast=0;collapsible=1;marginBottom=0;whiteSpace=wrap;html=1;align=center;fontColor=default;" parent="1" vertex="1">
          <mxGeometry x="-2160" y="90" width="260" height="120" as="geometry" />
        </mxCell>
        <mxCell id="iMFxXNbG9mVQUTvpo4ha-47" value="-_key: string" style="text;whiteSpace=wrap;html=1;fontColor=default;" parent="iMFxXNbG9mVQUTvpo4ha-44" vertex="1">
          <mxGeometry y="30" width="260" height="30" as="geometry" />
        </mxCell>
        <mxCell id="iMFxXNbG9mVQUTvpo4ha-49" value="+JwtService(IConfiguration)" style="text;whiteSpace=wrap;html=1;fontColor=default;" parent="iMFxXNbG9mVQUTvpo4ha-44" vertex="1">
          <mxGeometry y="60" width="260" height="30" as="geometry" />
        </mxCell>
        <mxCell id="iMFxXNbG9mVQUTvpo4ha-50" value="+GenerateToken(User): string" style="text;whiteSpace=wrap;html=1;fontColor=default;" parent="iMFxXNbG9mVQUTvpo4ha-44" vertex="1">
          <mxGeometry y="90" width="260" height="30" as="geometry" />
        </mxCell>
        <mxCell id="iMFxXNbG9mVQUTvpo4ha-88" style="edgeStyle=orthogonalEdgeStyle;rounded=0;orthogonalLoop=1;jettySize=auto;html=1;entryX=0.25;entryY=0;entryDx=0;entryDy=0;strokeWidth=2;endSize=22;endArrow=diamondThin;endFill=1;fontColor=#FF0000;" parent="1" source="iMFxXNbG9mVQUTvpo4ha-45" target="iMFxXNbG9mVQUTvpo4ha-80" edge="1">
          <mxGeometry relative="1" as="geometry" />
        </mxCell>
        <mxCell id="iMFxXNbG9mVQUTvpo4ha-92" style="edgeStyle=orthogonalEdgeStyle;rounded=0;orthogonalLoop=1;jettySize=auto;html=1;entryX=0.5;entryY=0;entryDx=0;entryDy=0;strokeWidth=2;endArrow=open;endFill=0;dashed=1;endSize=22;labelBackgroundColor=none;fontColor=#FF0000;" parent="1" source="iMFxXNbG9mVQUTvpo4ha-45" target="e_NueUDCwhWNqrkMhHox-14" edge="1">
          <mxGeometry relative="1" as="geometry" />
        </mxCell>
        <mxCell id="iMFxXNbG9mVQUTvpo4ha-45" value="&amp;lt;&amp;lt;interface&lt;span style=&quot;&quot;&gt;&amp;gt;&amp;gt;&lt;/span&gt;&lt;div&gt;IJwtService&lt;/div&gt;" style="swimlane;childLayout=stackLayout;horizontal=1;startSize=30;horizontalStack=0;resizeParent=1;resizeParentMax=0;resizeLast=0;collapsible=1;marginBottom=0;whiteSpace=wrap;html=1;align=center;labelBackgroundColor=none;fontColor=default;" parent="1" vertex="1">
          <mxGeometry x="-1780" y="90" width="260" height="60" as="geometry" />
        </mxCell>
        <mxCell id="iMFxXNbG9mVQUTvpo4ha-46" value="GenerateToken(User): string" style="text;whiteSpace=wrap;html=1;labelBackgroundColor=none;fontColor=default;" parent="iMFxXNbG9mVQUTvpo4ha-45" vertex="1">
          <mxGeometry y="30" width="260" height="30" as="geometry" />
        </mxCell>
        <mxCell id="RKpVfi-_QJKtM7PnYj4Q-38" style="edgeStyle=orthogonalEdgeStyle;rounded=0;orthogonalLoop=1;jettySize=auto;html=1;strokeWidth=2;endArrow=diamondThin;endFill=0;endSize=22;fontColor=#FF0000;" parent="1" source="iMFxXNbG9mVQUTvpo4ha-51" target="iMFxXNbG9mVQUTvpo4ha-80" edge="1">
          <mxGeometry relative="1" as="geometry" />
        </mxCell>
        <mxCell id="iMFxXNbG9mVQUTvpo4ha-51" value="LoginRequest" style="swimlane;childLayout=stackLayout;horizontal=1;startSize=30;horizontalStack=0;resizeParent=1;resizeParentMax=0;resizeLast=0;collapsible=1;marginBottom=0;whiteSpace=wrap;html=1;align=center;fontColor=default;" parent="1" vertex="1">
          <mxGeometry x="-1000" y="370" width="260" height="90" as="geometry" />
        </mxCell>
        <mxCell id="iwyEC6983UlKEHwNcQ2G-23" value="+password: string" style="text;whiteSpace=wrap;html=1;fontColor=default;" parent="iMFxXNbG9mVQUTvpo4ha-51" vertex="1">
          <mxGeometry y="30" width="260" height="30" as="geometry" />
        </mxCell>
        <mxCell id="iwyEC6983UlKEHwNcQ2G-22" value="+email: string" style="text;whiteSpace=wrap;html=1;fontColor=default;" parent="iMFxXNbG9mVQUTvpo4ha-51" vertex="1">
          <mxGeometry y="60" width="260" height="30" as="geometry" />
        </mxCell>
        <mxCell id="RKpVfi-_QJKtM7PnYj4Q-37" style="edgeStyle=orthogonalEdgeStyle;rounded=0;orthogonalLoop=1;jettySize=auto;html=1;endSize=22;endArrow=diamondThin;endFill=0;strokeWidth=2;fontColor=#FF0000;" parent="1" source="iMFxXNbG9mVQUTvpo4ha-55" target="iMFxXNbG9mVQUTvpo4ha-80" edge="1">
          <mxGeometry relative="1" as="geometry" />
        </mxCell>
        <mxCell id="iMFxXNbG9mVQUTvpo4ha-55" value="RegisterRequest" style="swimlane;childLayout=stackLayout;horizontal=1;startSize=30;horizontalStack=0;resizeParent=1;resizeParentMax=0;resizeLast=0;collapsible=1;marginBottom=0;whiteSpace=wrap;html=1;align=center;fontColor=default;" parent="1" vertex="1">
          <mxGeometry x="-1000" y="250" width="260" height="90" as="geometry" />
        </mxCell>
        <mxCell id="iMFxXNbG9mVQUTvpo4ha-58" value="+email: string" style="text;whiteSpace=wrap;html=1;fontColor=default;" parent="iMFxXNbG9mVQUTvpo4ha-55" vertex="1">
          <mxGeometry y="30" width="260" height="30" as="geometry" />
        </mxCell>
        <mxCell id="iwyEC6983UlKEHwNcQ2G-21" value="+password: string" style="text;whiteSpace=wrap;html=1;fontColor=default;" parent="iMFxXNbG9mVQUTvpo4ha-55" vertex="1">
          <mxGeometry y="60" width="260" height="30" as="geometry" />
        </mxCell>
        <mxCell id="RKpVfi-_QJKtM7PnYj4Q-39" style="edgeStyle=orthogonalEdgeStyle;rounded=0;orthogonalLoop=1;jettySize=auto;html=1;endArrow=diamondThin;endFill=1;strokeWidth=2;endSize=22;fontColor=#FF0000;" parent="1" source="iMFxXNbG9mVQUTvpo4ha-59" target="iMFxXNbG9mVQUTvpo4ha-80" edge="1">
          <mxGeometry relative="1" as="geometry">
            <Array as="points">
              <mxPoint x="-1130" y="170" />
            </Array>
          </mxGeometry>
        </mxCell>
        <mxCell id="iwyEC6983UlKEHwNcQ2G-20" style="edgeStyle=orthogonalEdgeStyle;rounded=0;orthogonalLoop=1;jettySize=auto;html=1;endArrow=diamondThin;endFill=1;strokeWidth=2;endSize=22;" parent="1" source="iMFxXNbG9mVQUTvpo4ha-55" target="iwyEC6983UlKEHwNcQ2G-1" edge="1">
          <mxGeometry relative="1" as="geometry">
            <Array as="points">
              <mxPoint x="-660" y="320" />
              <mxPoint x="-660" y="320" />
            </Array>
          </mxGeometry>
        </mxCell>
        <mxCell id="iwyEC6983UlKEHwNcQ2G-25" style="edgeStyle=orthogonalEdgeStyle;rounded=0;orthogonalLoop=1;jettySize=auto;html=1;strokeWidth=2;endArrow=diamondThin;endFill=1;endSize=22;" parent="1" source="iMFxXNbG9mVQUTvpo4ha-59" target="iwyEC6983UlKEHwNcQ2G-1" edge="1">
          <mxGeometry relative="1" as="geometry" />
        </mxCell>
        <mxCell id="iMFxXNbG9mVQUTvpo4ha-59" value="AuthResponse" style="swimlane;childLayout=stackLayout;horizontal=1;startSize=30;horizontalStack=0;resizeParent=1;resizeParentMax=0;resizeLast=0;collapsible=1;marginBottom=0;whiteSpace=wrap;html=1;align=center;fontColor=default;" parent="1" vertex="1">
          <mxGeometry x="-1000" y="150" width="260" height="60" as="geometry" />
        </mxCell>
        <mxCell id="iMFxXNbG9mVQUTvpo4ha-62" value="+AuthResponse(string, int, string): record" style="text;whiteSpace=wrap;html=1;fontColor=default;" parent="iMFxXNbG9mVQUTvpo4ha-59" vertex="1">
          <mxGeometry y="30" width="260" height="30" as="geometry" />
        </mxCell>
        <mxCell id="iMFxXNbG9mVQUTvpo4ha-63" value="ControllerBase" style="swimlane;childLayout=stackLayout;horizontal=1;startSize=30;horizontalStack=0;resizeParent=1;resizeParentMax=0;resizeLast=0;collapsible=1;marginBottom=0;whiteSpace=wrap;html=1;align=center;fillColor=#f5f5f5;gradientColor=#b3b3b3;strokeColor=#666666;fontColor=#000000;" parent="1" vertex="1">
          <mxGeometry x="-1780" y="380" width="260" height="60" as="geometry" />
        </mxCell>
        <mxCell id="iMFxXNbG9mVQUTvpo4ha-65" value="IEntityTypeConfiguration&amp;lt;T&amp;gt;" style="swimlane;childLayout=stackLayout;horizontal=1;startSize=30;horizontalStack=0;resizeParent=1;resizeParentMax=0;resizeLast=0;collapsible=1;marginBottom=0;whiteSpace=wrap;html=1;align=center;fillColor=#f5f5f5;gradientColor=#b3b3b3;strokeColor=#666666;fontColor=#000000;" parent="1" vertex="1">
          <mxGeometry x="-2930" y="120" width="260" height="60" as="geometry" />
        </mxCell>
        <mxCell id="iMFxXNbG9mVQUTvpo4ha-87" style="edgeStyle=orthogonalEdgeStyle;rounded=0;orthogonalLoop=1;jettySize=auto;html=1;strokeWidth=2;endArrow=block;endFill=0;endSize=22;entryX=1;entryY=0.5;entryDx=0;entryDy=0;fontColor=#FF0000;" parent="1" source="iMFxXNbG9mVQUTvpo4ha-80" target="iMFxXNbG9mVQUTvpo4ha-63" edge="1">
          <mxGeometry relative="1" as="geometry" />
        </mxCell>
        <mxCell id="iMFxXNbG9mVQUTvpo4ha-80" value="AuthController" style="swimlane;childLayout=stackLayout;horizontal=1;startSize=30;horizontalStack=0;resizeParent=1;resizeParentMax=0;resizeLast=0;collapsible=1;marginBottom=0;whiteSpace=wrap;html=1;align=center;fontColor=#FFFFFF;" parent="1" vertex="1">
          <mxGeometry x="-1440" y="200" width="360" height="180" as="geometry" />
        </mxCell>
        <mxCell id="iMFxXNbG9mVQUTvpo4ha-81" value="-_db:&amp;nbsp;ControlApiDbContext" style="text;whiteSpace=wrap;html=1;fontColor=#FFFFFF;" parent="iMFxXNbG9mVQUTvpo4ha-80" vertex="1">
          <mxGeometry y="30" width="360" height="30" as="geometry" />
        </mxCell>
        <mxCell id="iMFxXNbG9mVQUTvpo4ha-84" value="-_jwt:&amp;nbsp;IJwtService" style="text;whiteSpace=wrap;html=1;fontColor=#FFFFFF;" parent="iMFxXNbG9mVQUTvpo4ha-80" vertex="1">
          <mxGeometry y="60" width="360" height="30" as="geometry" />
        </mxCell>
        <mxCell id="iMFxXNbG9mVQUTvpo4ha-83" value="AuthController(ControlApiDbContext,&amp;nbsp;IJwtService): string" style="text;whiteSpace=wrap;html=1;fontColor=#FFFFFF;" parent="iMFxXNbG9mVQUTvpo4ha-80" vertex="1">
          <mxGeometry y="90" width="360" height="30" as="geometry" />
        </mxCell>
        <mxCell id="iMFxXNbG9mVQUTvpo4ha-85" value="+Register(RegisterRequest):&amp;nbsp;Task&amp;lt;ActionResult&amp;lt;AuthResponse&amp;gt;&amp;gt;" style="text;whiteSpace=wrap;html=1;fontColor=#FFFFFF;" parent="iMFxXNbG9mVQUTvpo4ha-80" vertex="1">
          <mxGeometry y="120" width="360" height="30" as="geometry" />
        </mxCell>
        <mxCell id="iMFxXNbG9mVQUTvpo4ha-86" value="+Login(LoginRequest):&amp;nbsp;Task&amp;lt;ActionResult&amp;lt;AuthResponse&amp;gt;&amp;gt;" style="text;whiteSpace=wrap;html=1;fontColor=#FFFFFF;" parent="iMFxXNbG9mVQUTvpo4ha-80" vertex="1">
          <mxGeometry y="150" width="360" height="30" as="geometry" />
        </mxCell>
        <mxCell id="iMFxXNbG9mVQUTvpo4ha-115" style="edgeStyle=orthogonalEdgeStyle;rounded=0;orthogonalLoop=1;jettySize=auto;html=1;fontSize=12;strokeWidth=2;endArrow=open;endFill=0;endSize=22;dashed=1;fontColor=#FF0000;" parent="1" source="iMFxXNbG9mVQUTvpo4ha-98" target="e_NueUDCwhWNqrkMhHox-14" edge="1">
          <mxGeometry relative="1" as="geometry">
            <Array as="points">
              <mxPoint x="-1850" y="270" />
              <mxPoint x="-1850" y="300" />
            </Array>
          </mxGeometry>
        </mxCell>
        <mxCell id="iMFxXNbG9mVQUTvpo4ha-118" style="edgeStyle=orthogonalEdgeStyle;rounded=0;orthogonalLoop=1;jettySize=auto;html=1;entryX=1;entryY=0.5;entryDx=0;entryDy=0;strokeWidth=2;endArrow=block;endFill=0;endSize=22;fontColor=#FF0000;" parent="1" source="iMFxXNbG9mVQUTvpo4ha-98" target="iMFxXNbG9mVQUTvpo4ha-65" edge="1">
          <mxGeometry relative="1" as="geometry">
            <Array as="points">
              <mxPoint x="-2200" y="260" />
              <mxPoint x="-2200" y="150" />
            </Array>
          </mxGeometry>
        </mxCell>
        <mxCell id="iMFxXNbG9mVQUTvpo4ha-98" value="UserConfig" style="swimlane;childLayout=stackLayout;horizontal=1;startSize=30;horizontalStack=0;resizeParent=1;resizeParentMax=0;resizeLast=0;collapsible=1;marginBottom=0;whiteSpace=wrap;html=1;align=center;fontColor=default;" parent="1" vertex="1">
          <mxGeometry x="-2160" y="240" width="260" height="60" as="geometry" />
        </mxCell>
        <mxCell id="iMFxXNbG9mVQUTvpo4ha-99" value="+Configure(EntityTypeBuilder&amp;lt;User&amp;gt;): void" style="text;whiteSpace=wrap;html=1;fontColor=default;" parent="iMFxXNbG9mVQUTvpo4ha-98" vertex="1">
          <mxGeometry y="30" width="260" height="30" as="geometry" />
        </mxCell>
        <mxCell id="iMFxXNbG9mVQUTvpo4ha-101" value="EntityTypeConfiguration&amp;lt;T&amp;gt;" style="swimlane;childLayout=stackLayout;horizontal=1;startSize=30;horizontalStack=0;resizeParent=1;resizeParentMax=0;resizeLast=0;collapsible=1;marginBottom=0;whiteSpace=wrap;html=1;align=center;fillColor=#f5f5f5;gradientColor=#b3b3b3;strokeColor=#666666;fontColor=#000000;" parent="1" vertex="1">
          <mxGeometry x="-2930" y="240" width="260" height="60" as="geometry" />
        </mxCell>
        <mxCell id="RKpVfi-_QJKtM7PnYj4Q-17" style="edgeStyle=orthogonalEdgeStyle;rounded=0;orthogonalLoop=1;jettySize=auto;html=1;endArrow=open;endFill=0;dashed=1;strokeWidth=2;endSize=22;fontColor=#FF0000;" parent="1" source="iMFxXNbG9mVQUTvpo4ha-104" target="iMFxXNbG9mVQUTvpo4ha-101" edge="1">
          <mxGeometry relative="1" as="geometry">
            <Array as="points">
              <mxPoint x="-2580" y="-90" />
              <mxPoint x="-2580" y="200" />
              <mxPoint x="-2710" y="200" />
            </Array>
          </mxGeometry>
        </mxCell>
        <mxCell id="iMFxXNbG9mVQUTvpo4ha-104" value="PredictionConfig" style="swimlane;childLayout=stackLayout;horizontal=1;startSize=30;horizontalStack=0;resizeParent=1;resizeParentMax=0;resizeLast=0;collapsible=1;marginBottom=0;whiteSpace=wrap;html=1;align=center;fontColor=default;" parent="1" vertex="1">
          <mxGeometry x="-2940" y="-120" width="260" height="60" as="geometry" />
        </mxCell>
        <mxCell id="iMFxXNbG9mVQUTvpo4ha-105" value="+Configure(EntityTypeBuilder&amp;lt;Prediction&amp;gt;): void" style="text;whiteSpace=wrap;html=1;fontColor=default;" parent="iMFxXNbG9mVQUTvpo4ha-104" vertex="1">
          <mxGeometry y="30" width="260" height="30" as="geometry" />
        </mxCell>
        <mxCell id="RKpVfi-_QJKtM7PnYj4Q-9" style="edgeStyle=orthogonalEdgeStyle;rounded=0;orthogonalLoop=1;jettySize=auto;html=1;endArrow=block;endFill=0;strokeWidth=2;sourcePerimeterSpacing=1;endSize=22;fontColor=#FF0000;" parent="1" source="iMFxXNbG9mVQUTvpo4ha-106" target="iMFxXNbG9mVQUTvpo4ha-65" edge="1">
          <mxGeometry relative="1" as="geometry" />
        </mxCell>
        <mxCell id="RKpVfi-_QJKtM7PnYj4Q-10" style="edgeStyle=orthogonalEdgeStyle;rounded=0;orthogonalLoop=1;jettySize=auto;html=1;entryX=0.5;entryY=0;entryDx=0;entryDy=0;dashed=1;strokeWidth=2;endArrow=open;endFill=0;endSize=22;fontColor=#FF0000;" parent="1" source="iMFxXNbG9mVQUTvpo4ha-106" target="iMFxXNbG9mVQUTvpo4ha-101" edge="1">
          <mxGeometry relative="1" as="geometry">
            <Array as="points">
              <mxPoint x="-2970" y="200" />
              <mxPoint x="-2800" y="200" />
            </Array>
          </mxGeometry>
        </mxCell>
        <mxCell id="iMFxXNbG9mVQUTvpo4ha-106" value="DetectionConfig" style="swimlane;childLayout=stackLayout;horizontal=1;startSize=30;horizontalStack=0;resizeParent=1;resizeParentMax=0;resizeLast=0;collapsible=1;marginBottom=0;whiteSpace=wrap;html=1;align=center;fontColor=default;" parent="1" vertex="1">
          <mxGeometry x="-3060" y="-20" width="260" height="60" as="geometry" />
        </mxCell>
        <mxCell id="iMFxXNbG9mVQUTvpo4ha-107" value="+Configure(EntityTypeBuilder&amp;lt;Detection&amp;gt;): void" style="text;whiteSpace=wrap;html=1;fontColor=default;" parent="iMFxXNbG9mVQUTvpo4ha-106" vertex="1">
          <mxGeometry y="30" width="260" height="30" as="geometry" />
        </mxCell>
        <mxCell id="RKpVfi-_QJKtM7PnYj4Q-20" style="edgeStyle=orthogonalEdgeStyle;rounded=0;orthogonalLoop=1;jettySize=auto;html=1;exitX=0;exitY=0;exitDx=0;exitDy=0;dashed=1;endArrow=open;endFill=0;strokeWidth=2;endSize=22;fontColor=#FF0000;" parent="1" source="iMFxXNbG9mVQUTvpo4ha-109" edge="1">
          <mxGeometry relative="1" as="geometry">
            <mxPoint x="-2710" y="240" as="targetPoint" />
            <Array as="points">
              <mxPoint x="-2580" y="-90" />
              <mxPoint x="-2580" y="200" />
              <mxPoint x="-2710" y="200" />
            </Array>
          </mxGeometry>
        </mxCell>
        <mxCell id="iMFxXNbG9mVQUTvpo4ha-108" value="DetectionPOIConfig" style="swimlane;childLayout=stackLayout;horizontal=1;startSize=30;horizontalStack=0;resizeParent=1;resizeParentMax=0;resizeLast=0;collapsible=1;marginBottom=0;whiteSpace=wrap;html=1;align=center;fontColor=default;" parent="1" vertex="1">
          <mxGeometry x="-2540" y="-120" width="300" height="60" as="geometry" />
        </mxCell>
        <mxCell id="iMFxXNbG9mVQUTvpo4ha-109" value="+Configure(EntityTypeBuilder&amp;lt;DetectionPOI&amp;gt;): void" style="text;whiteSpace=wrap;html=1;fontColor=default;" parent="iMFxXNbG9mVQUTvpo4ha-108" vertex="1">
          <mxGeometry y="30" width="300" height="30" as="geometry" />
        </mxCell>
        <mxCell id="RKpVfi-_QJKtM7PnYj4Q-30" style="edgeStyle=orthogonalEdgeStyle;rounded=0;orthogonalLoop=1;jettySize=auto;html=1;entryX=0;entryY=0.5;entryDx=0;entryDy=0;strokeWidth=2;endSize=22;endArrow=block;endFill=0;fontColor=#FF0000;" parent="1" source="iMFxXNbG9mVQUTvpo4ha-112" target="iMFxXNbG9mVQUTvpo4ha-65" edge="1">
          <mxGeometry relative="1" as="geometry" />
        </mxCell>
        <mxCell id="RKpVfi-_QJKtM7PnYj4Q-31" style="edgeStyle=orthogonalEdgeStyle;rounded=0;orthogonalLoop=1;jettySize=auto;html=1;dashed=1;endArrow=open;endFill=0;endSize=22;strokeWidth=2;fontColor=#FF0000;" parent="1" source="iMFxXNbG9mVQUTvpo4ha-112" target="iMFxXNbG9mVQUTvpo4ha-101" edge="1">
          <mxGeometry relative="1" as="geometry">
            <Array as="points">
              <mxPoint x="-3170" y="270" />
            </Array>
          </mxGeometry>
        </mxCell>
        <mxCell id="iMFxXNbG9mVQUTvpo4ha-112" value="POIConfig" style="swimlane;childLayout=stackLayout;horizontal=1;startSize=30;horizontalStack=0;resizeParent=1;resizeParentMax=0;resizeLast=0;collapsible=1;marginBottom=0;whiteSpace=wrap;html=1;align=center;fontColor=default;" parent="1" vertex="1">
          <mxGeometry x="-3300" y="120" width="260" height="60" as="geometry" />
        </mxCell>
        <mxCell id="iMFxXNbG9mVQUTvpo4ha-113" value="+Configure(EntityTypeBuilder&amp;lt;POI&amp;gt;): void" style="text;whiteSpace=wrap;html=1;fontColor=default;" parent="iMFxXNbG9mVQUTvpo4ha-112" vertex="1">
          <mxGeometry y="30" width="260" height="30" as="geometry" />
        </mxCell>
        <mxCell id="iMFxXNbG9mVQUTvpo4ha-117" style="edgeStyle=orthogonalEdgeStyle;rounded=0;orthogonalLoop=1;jettySize=auto;html=1;entryX=1;entryY=0.5;entryDx=0;entryDy=0;fontSize=12;strokeWidth=2;endArrow=open;endFill=0;endSize=22;dashed=1;exitX=0;exitY=0.5;exitDx=0;exitDy=0;fontColor=#FF0000;" parent="1" source="iMFxXNbG9mVQUTvpo4ha-98" target="iMFxXNbG9mVQUTvpo4ha-101" edge="1">
          <mxGeometry relative="1" as="geometry">
            <mxPoint x="-2330" y="259.97" as="sourcePoint" />
            <mxPoint x="-2210" y="319.97" as="targetPoint" />
            <Array as="points">
              <mxPoint x="-2220" y="270" />
              <mxPoint x="-2220" y="270" />
            </Array>
          </mxGeometry>
        </mxCell>
        <mxCell id="RKpVfi-_QJKtM7PnYj4Q-3" style="edgeStyle=orthogonalEdgeStyle;rounded=0;orthogonalLoop=1;jettySize=auto;html=1;entryX=0;entryY=0.5;entryDx=0;entryDy=0;endArrow=diamondThin;endFill=1;strokeWidth=2;endSize=22;fontColor=#FF0000;" parent="1" source="iMFxXNbG9mVQUTvpo4ha-26" target="e_NueUDCwhWNqrkMhHox-7" edge="1">
          <mxGeometry relative="1" as="geometry" />
        </mxCell>
        <mxCell id="RKpVfi-_QJKtM7PnYj4Q-13" style="edgeStyle=orthogonalEdgeStyle;rounded=0;orthogonalLoop=1;jettySize=auto;html=1;endArrow=diamondThin;endFill=1;strokeWidth=2;endSize=22;startArrow=diamondThin;startFill=1;startSize=22;fillColor=#60a917;strokeColor=#2D7600;fontColor=#FF0000;" parent="1" source="iMFxXNbG9mVQUTvpo4ha-14" target="e_NueUDCwhWNqrkMhHox-25" edge="1">
          <mxGeometry relative="1" as="geometry">
            <mxPoint x="-2160" y="-495" as="sourcePoint" />
            <Array as="points">
              <mxPoint x="-2080" y="-450" />
            </Array>
          </mxGeometry>
        </mxCell>
        <mxCell id="RKpVfi-_QJKtM7PnYj4Q-16" style="edgeStyle=orthogonalEdgeStyle;rounded=0;orthogonalLoop=1;jettySize=auto;html=1;strokeWidth=2;endArrow=block;endFill=0;endSize=22;fillColor=#60a917;strokeColor=#2D7600;fontColor=#FF0000;" parent="1" source="iMFxXNbG9mVQUTvpo4ha-104" target="iMFxXNbG9mVQUTvpo4ha-65" edge="1">
          <mxGeometry relative="1" as="geometry">
            <Array as="points">
              <mxPoint x="-2730" y="-20" />
              <mxPoint x="-2730" y="-20" />
            </Array>
          </mxGeometry>
        </mxCell>
        <mxCell id="RKpVfi-_QJKtM7PnYj4Q-22" style="edgeStyle=orthogonalEdgeStyle;rounded=0;orthogonalLoop=1;jettySize=auto;html=1;fillColor=#60a917;strokeColor=#2D7600;endArrow=block;endFill=0;strokeWidth=2;endSize=22;fontColor=#FF0000;" parent="1" source="iMFxXNbG9mVQUTvpo4ha-108" target="iMFxXNbG9mVQUTvpo4ha-65" edge="1">
          <mxGeometry relative="1" as="geometry">
            <Array as="points">
              <mxPoint x="-2390" y="-20" />
              <mxPoint x="-2730" y="-20" />
            </Array>
          </mxGeometry>
        </mxCell>
        <mxCell id="BStSNmWfcpvedDnKXRI8-7" value="&lt;font style=&quot;font-size: 25px;&quot;&gt;Legenda&lt;/font&gt;" style="swimlane;whiteSpace=wrap;html=1;startSize=50;fontColor=#FFF9FA;" parent="1" vertex="1">
          <mxGeometry x="-920" y="-1160" width="440" height="400" as="geometry" />
        </mxCell>
        <mxCell id="BStSNmWfcpvedDnKXRI8-8" value="This class is associated with" style="text;html=1;align=right;verticalAlign=middle;resizable=0;points=[];autosize=1;strokeColor=none;fillColor=none;fontColor=#FFF9FA;" parent="BStSNmWfcpvedDnKXRI8-7" vertex="1">
          <mxGeometry x="100" y="60" width="170" height="30" as="geometry" />
        </mxCell>
        <mxCell id="BStSNmWfcpvedDnKXRI8-2" value="" style="endArrow=none;html=1;rounded=0;entryX=0.184;entryY=0.81;entryDx=0;entryDy=0;entryPerimeter=0;startFill=0;strokeWidth=2;fontColor=#FFF9FA;" parent="BStSNmWfcpvedDnKXRI8-7" edge="1">
          <mxGeometry width="50" height="50" relative="1" as="geometry">
            <mxPoint x="279.84" y="74.63" as="sourcePoint" />
            <mxPoint x="339.99999999999983" y="74.7299999999999" as="targetPoint" />
          </mxGeometry>
        </mxCell>
        <mxCell id="BStSNmWfcpvedDnKXRI8-14" value="This class is dependent upon" style="text;html=1;align=right;verticalAlign=middle;resizable=0;points=[];autosize=1;strokeColor=none;fillColor=none;fontColor=#FFF9FA;" parent="BStSNmWfcpvedDnKXRI8-7" vertex="1">
          <mxGeometry x="90" y="90" width="180" height="30" as="geometry" />
        </mxCell>
        <mxCell id="BStSNmWfcpvedDnKXRI8-15" value="" style="endArrow=open;html=1;rounded=0;entryX=0.184;entryY=0.81;entryDx=0;entryDy=0;entryPerimeter=0;strokeWidth=2;endFill=0;dashed=1;endSize=20;fontColor=#FFF9FA;" parent="BStSNmWfcpvedDnKXRI8-7" edge="1">
          <mxGeometry width="50" height="50" relative="1" as="geometry">
            <mxPoint x="279.8399999999999" y="104.63" as="sourcePoint" />
            <mxPoint x="339.9999999999998" y="104.7299999999999" as="targetPoint" />
          </mxGeometry>
        </mxCell>
        <mxCell id="BStSNmWfcpvedDnKXRI8-17" value="This class inherits from" style="text;html=1;align=right;verticalAlign=middle;resizable=0;points=[];autosize=1;strokeColor=none;fillColor=none;fontColor=#FFF9FA;" parent="BStSNmWfcpvedDnKXRI8-7" vertex="1">
          <mxGeometry x="120" y="120" width="150" height="30" as="geometry" />
        </mxCell>
        <mxCell id="BStSNmWfcpvedDnKXRI8-18" value="" style="endArrow=block;html=1;rounded=0;entryX=0.184;entryY=0.81;entryDx=0;entryDy=0;entryPerimeter=0;endFill=0;endSize=20;strokeWidth=2;fontColor=#FFF9FA;" parent="BStSNmWfcpvedDnKXRI8-7" edge="1">
          <mxGeometry width="50" height="50" relative="1" as="geometry">
            <mxPoint x="279.8399999999999" y="134.63" as="sourcePoint" />
            <mxPoint x="339.9999999999998" y="134.7299999999999" as="targetPoint" />
          </mxGeometry>
        </mxCell>
        <mxCell id="BStSNmWfcpvedDnKXRI8-23" value="This class is a realisation of" style="text;html=1;align=right;verticalAlign=middle;resizable=0;points=[];autosize=1;strokeColor=none;fillColor=none;fontColor=#FFF9FA;" parent="BStSNmWfcpvedDnKXRI8-7" vertex="1">
          <mxGeometry x="100" y="150" width="170" height="30" as="geometry" />
        </mxCell>
        <mxCell id="BStSNmWfcpvedDnKXRI8-24" value="" style="endArrow=block;html=1;rounded=0;entryX=0.184;entryY=0.81;entryDx=0;entryDy=0;entryPerimeter=0;endFill=0;dashed=1;strokeWidth=2;endSize=20;fontColor=#FFF9FA;" parent="BStSNmWfcpvedDnKXRI8-7" edge="1">
          <mxGeometry width="50" height="50" relative="1" as="geometry">
            <mxPoint x="279.8399999999999" y="164.63" as="sourcePoint" />
            <mxPoint x="339.9999999999998" y="164.7299999999999" as="targetPoint" />
          </mxGeometry>
        </mxCell>
        <mxCell id="BStSNmWfcpvedDnKXRI8-26" value="You can navigate from this class to" style="text;html=1;align=right;verticalAlign=middle;resizable=0;points=[];autosize=1;strokeColor=none;fillColor=none;fontColor=#FFF9FA;" parent="BStSNmWfcpvedDnKXRI8-7" vertex="1">
          <mxGeometry x="60" y="180" width="210" height="30" as="geometry" />
        </mxCell>
        <mxCell id="BStSNmWfcpvedDnKXRI8-27" value="" style="endArrow=open;html=1;rounded=0;entryX=0.184;entryY=0.81;entryDx=0;entryDy=0;entryPerimeter=0;endFill=0;endSize=20;strokeWidth=2;fontColor=#FFF9FA;" parent="BStSNmWfcpvedDnKXRI8-7" edge="1">
          <mxGeometry width="50" height="50" relative="1" as="geometry">
            <mxPoint x="279.8399999999999" y="194.63" as="sourcePoint" />
            <mxPoint x="339.9999999999998" y="194.7299999999999" as="targetPoint" />
          </mxGeometry>
        </mxCell>
        <mxCell id="BStSNmWfcpvedDnKXRI8-29" value="These classes compose without belonging to" style="text;html=1;align=right;verticalAlign=middle;resizable=0;points=[];autosize=1;strokeColor=none;fillColor=none;fontColor=#FFF9FA;" parent="BStSNmWfcpvedDnKXRI8-7" vertex="1">
          <mxGeometry x="10" y="210" width="260" height="30" as="geometry" />
        </mxCell>
        <mxCell id="BStSNmWfcpvedDnKXRI8-30" value="" style="endArrow=diamondThin;html=1;rounded=0;entryX=0.184;entryY=0.81;entryDx=0;entryDy=0;entryPerimeter=0;endFill=0;strokeWidth=2;endSize=20;fontColor=#FFF9FA;" parent="BStSNmWfcpvedDnKXRI8-7" edge="1">
          <mxGeometry width="50" height="50" relative="1" as="geometry">
            <mxPoint x="279.8399999999999" y="224.63" as="sourcePoint" />
            <mxPoint x="339.9999999999998" y="224.7299999999999" as="targetPoint" />
          </mxGeometry>
        </mxCell>
        <mxCell id="BStSNmWfcpvedDnKXRI8-32" value="These classes compose and are contained by" style="text;html=1;align=right;verticalAlign=middle;resizable=0;points=[];autosize=1;strokeColor=none;fillColor=none;fontColor=#FFF9FA;" parent="BStSNmWfcpvedDnKXRI8-7" vertex="1">
          <mxGeometry y="240" width="270" height="30" as="geometry" />
        </mxCell>
        <mxCell id="BStSNmWfcpvedDnKXRI8-33" value="" style="endArrow=diamondThin;html=1;rounded=0;entryX=0.184;entryY=0.81;entryDx=0;entryDy=0;entryPerimeter=0;endFill=1;endSize=20;strokeWidth=2;fontColor=#FFF9FA;" parent="BStSNmWfcpvedDnKXRI8-7" edge="1">
          <mxGeometry width="50" height="50" relative="1" as="geometry">
            <mxPoint x="279.8399999999999" y="254.63" as="sourcePoint" />
            <mxPoint x="339.9999999999998" y="254.7299999999999" as="targetPoint" />
          </mxGeometry>
        </mxCell>
        <mxCell id="BStSNmWfcpvedDnKXRI8-36" value="" style="endArrow=blockThin;html=1;rounded=0;entryX=0.184;entryY=0.81;entryDx=0;entryDy=0;entryPerimeter=0;endFill=1;strokeWidth=2;targetPerimeterSpacing=1;endSize=20;fontColor=#FFF9FA;" parent="BStSNmWfcpvedDnKXRI8-7" edge="1">
          <mxGeometry width="50" height="50" relative="1" as="geometry">
            <mxPoint x="279.8399999999999" y="284.63" as="sourcePoint" />
            <mxPoint x="339.9999999999998" y="284.7299999999999" as="targetPoint" />
          </mxGeometry>
        </mxCell>
        <mxCell id="BStSNmWfcpvedDnKXRI8-38" value="This object sends an asynchronous message to" style="text;html=1;align=right;verticalAlign=middle;resizable=0;points=[];autosize=1;strokeColor=none;fillColor=none;fontColor=#FFF9FA;" parent="BStSNmWfcpvedDnKXRI8-7" vertex="1">
          <mxGeometry x="-10" y="300" width="280" height="30" as="geometry" />
        </mxCell>
        <mxCell id="BStSNmWfcpvedDnKXRI8-39" value="" style="endArrow=async;html=1;rounded=0;entryX=0.184;entryY=0.81;entryDx=0;entryDy=0;entryPerimeter=0;endFill=1;strokeWidth=2;endSize=20;fontColor=#FFF9FA;" parent="BStSNmWfcpvedDnKXRI8-7" edge="1">
          <mxGeometry width="50" height="50" relative="1" as="geometry">
            <mxPoint x="279.8399999999999" y="314.63" as="sourcePoint" />
            <mxPoint x="339.9999999999998" y="314.7299999999999" as="targetPoint" />
          </mxGeometry>
        </mxCell>
        <mxCell id="BStSNmWfcpvedDnKXRI8-9" value="this class" style="text;html=1;align=left;verticalAlign=middle;resizable=0;points=[];autosize=1;strokeColor=none;fillColor=none;fontColor=#FFF9FA;" parent="BStSNmWfcpvedDnKXRI8-7" vertex="1">
          <mxGeometry x="350" y="60" width="70" height="30" as="geometry" />
        </mxCell>
        <mxCell id="BStSNmWfcpvedDnKXRI8-16" value="this class" style="text;html=1;align=left;verticalAlign=middle;resizable=0;points=[];autosize=1;strokeColor=none;fillColor=none;fontColor=#FFF9FA;" parent="BStSNmWfcpvedDnKXRI8-7" vertex="1">
          <mxGeometry x="350" y="90" width="70" height="30" as="geometry" />
        </mxCell>
        <mxCell id="BStSNmWfcpvedDnKXRI8-19" value="this class" style="text;html=1;align=left;verticalAlign=middle;resizable=0;points=[];autosize=1;strokeColor=none;fillColor=none;fontColor=#FFF9FA;" parent="BStSNmWfcpvedDnKXRI8-7" vertex="1">
          <mxGeometry x="350" y="120" width="70" height="30" as="geometry" />
        </mxCell>
        <mxCell id="BStSNmWfcpvedDnKXRI8-25" value="this interface" style="text;html=1;align=left;verticalAlign=middle;resizable=0;points=[];autosize=1;strokeColor=none;fillColor=none;fontColor=#FFF9FA;" parent="BStSNmWfcpvedDnKXRI8-7" vertex="1">
          <mxGeometry x="350" y="150" width="90" height="30" as="geometry" />
        </mxCell>
        <mxCell id="BStSNmWfcpvedDnKXRI8-31" value="this class" style="text;html=1;align=left;verticalAlign=middle;resizable=0;points=[];autosize=1;strokeColor=none;fillColor=none;fontColor=#FFF9FA;" parent="BStSNmWfcpvedDnKXRI8-7" vertex="1">
          <mxGeometry x="350" y="210" width="70" height="30" as="geometry" />
        </mxCell>
        <mxCell id="BStSNmWfcpvedDnKXRI8-34" value="this class" style="text;html=1;align=left;verticalAlign=middle;resizable=0;points=[];autosize=1;strokeColor=none;fillColor=none;fontColor=#FFF9FA;" parent="BStSNmWfcpvedDnKXRI8-7" vertex="1">
          <mxGeometry x="350" y="240" width="70" height="30" as="geometry" />
        </mxCell>
        <mxCell id="BStSNmWfcpvedDnKXRI8-37" value="this object" style="text;html=1;align=left;verticalAlign=middle;resizable=0;points=[];autosize=1;strokeColor=none;fillColor=none;fontColor=#FFF9FA;" parent="BStSNmWfcpvedDnKXRI8-7" vertex="1">
          <mxGeometry x="350" y="270" width="80" height="30" as="geometry" />
        </mxCell>
        <mxCell id="BStSNmWfcpvedDnKXRI8-40" value="this object" style="text;html=1;align=left;verticalAlign=middle;resizable=0;points=[];autosize=1;strokeColor=none;fillColor=none;fontColor=#FFF9FA;" parent="BStSNmWfcpvedDnKXRI8-7" vertex="1">
          <mxGeometry x="350" y="300" width="80" height="30" as="geometry" />
        </mxCell>
        <mxCell id="BStSNmWfcpvedDnKXRI8-43" value="External Class" style="swimlane;childLayout=stackLayout;horizontal=1;startSize=30;horizontalStack=0;resizeParent=1;resizeParentMax=0;resizeLast=0;collapsible=1;marginBottom=0;whiteSpace=wrap;html=1;align=center;fillColor=#f5f5f5;gradientColor=#b3b3b3;strokeColor=#666666;fontColor=#000000;" parent="BStSNmWfcpvedDnKXRI8-7" vertex="1">
          <mxGeometry x="290" y="360" width="120" height="30" as="geometry" />
        </mxCell>
        <mxCell id="BStSNmWfcpvedDnKXRI8-44" value="Internal Class" style="swimlane;childLayout=stackLayout;horizontal=1;startSize=30;horizontalStack=0;resizeParent=1;resizeParentMax=0;resizeLast=0;collapsible=1;marginBottom=0;whiteSpace=wrap;html=1;align=center;fontColor=#FFF9FA;" parent="BStSNmWfcpvedDnKXRI8-7" vertex="1">
          <mxGeometry x="160" y="360" width="120" height="30" as="geometry" />
        </mxCell>
        <mxCell id="BStSNmWfcpvedDnKXRI8-28" value="this class" style="text;html=1;align=left;verticalAlign=middle;resizable=0;points=[];autosize=1;strokeColor=none;fillColor=none;fontColor=#FFF9FA;" parent="BStSNmWfcpvedDnKXRI8-7" vertex="1">
          <mxGeometry x="350" y="180" width="70" height="30" as="geometry" />
        </mxCell>
        <mxCell id="BStSNmWfcpvedDnKXRI8-35" value="This object sends a synchronous message to" style="text;html=1;align=right;verticalAlign=middle;resizable=0;points=[];autosize=1;strokeColor=none;fillColor=none;fontColor=#FFF9FA;" parent="BStSNmWfcpvedDnKXRI8-7" vertex="1">
          <mxGeometry x="10" y="270" width="260" height="30" as="geometry" />
        </mxCell>
        <mxCell id="BStSNmWfcpvedDnKXRI8-41" value="" style="endArrow=block;html=1;rounded=0;endFill=0;endSize=22;edgeStyle=orthogonalEdgeStyle;strokeWidth=2;fontColor=#FF0000;dashed=1;dashPattern=8 8;" parent="1" source="iMFxXNbG9mVQUTvpo4ha-44" target="iMFxXNbG9mVQUTvpo4ha-45" edge="1">
          <mxGeometry width="50" height="50" relative="1" as="geometry">
            <mxPoint x="-1870" y="90" as="sourcePoint" />
            <mxPoint x="-1810" y="90" as="targetPoint" />
            <Array as="points">
              <mxPoint x="-1870" y="120" />
              <mxPoint x="-1870" y="120" />
            </Array>
          </mxGeometry>
        </mxCell>
        <mxCell id="iwyEC6983UlKEHwNcQ2G-19" style="edgeStyle=orthogonalEdgeStyle;rounded=0;orthogonalLoop=1;jettySize=auto;html=1;strokeWidth=2;endSize=22;endArrow=diamondThin;endFill=1;" parent="1" source="iwyEC6983UlKEHwNcQ2G-1" target="iMFxXNbG9mVQUTvpo4ha-80" edge="1">
          <mxGeometry relative="1" as="geometry">
            <Array as="points">
              <mxPoint x="-560" y="40" />
              <mxPoint x="-1260" y="40" />
            </Array>
          </mxGeometry>
        </mxCell>
        <mxCell id="iwyEC6983UlKEHwNcQ2G-1" value="AuthControllerTests" style="swimlane;childLayout=stackLayout;horizontal=1;startSize=30;horizontalStack=0;resizeParent=1;resizeParentMax=0;resizeLast=0;collapsible=1;marginBottom=0;whiteSpace=wrap;html=1;align=center;fontColor=default;" parent="1" vertex="1">
          <mxGeometry x="-600" y="200" width="400" height="240" as="geometry" />
        </mxCell>
        <mxCell id="iwyEC6983UlKEHwNcQ2G-2" value="-CreateInMemoryDb(): ControlApiDbContext" style="text;whiteSpace=wrap;html=1;fontColor=default;" parent="iwyEC6983UlKEHwNcQ2G-1" vertex="1">
          <mxGeometry y="30" width="400" height="30" as="geometry" />
        </mxCell>
        <mxCell id="iwyEC6983UlKEHwNcQ2G-3" value="-CreateSut():&amp;nbsp;(AuthController, Mock&amp;lt;IJwtService&amp;gt;, ControlApiDbContext)" style="text;whiteSpace=wrap;html=1;fontColor=default;" parent="iwyEC6983UlKEHwNcQ2G-1" vertex="1">
          <mxGeometry y="60" width="400" height="30" as="geometry" />
        </mxCell>
        <mxCell id="iwyEC6983UlKEHwNcQ2G-8" value="+Register_NewEmail_ReturnsOkWithToken():&amp;nbsp;Task" style="text;whiteSpace=wrap;html=1;fontColor=default;" parent="iwyEC6983UlKEHwNcQ2G-1" vertex="1">
          <mxGeometry y="90" width="400" height="30" as="geometry" />
        </mxCell>
        <mxCell id="iwyEC6983UlKEHwNcQ2G-7" value="+Register_DuplicateEmail_ReturnsConflict():&amp;nbsp;Task" style="text;whiteSpace=wrap;html=1;fontColor=default;" parent="iwyEC6983UlKEHwNcQ2G-1" vertex="1">
          <mxGeometry y="120" width="400" height="30" as="geometry" />
        </mxCell>
        <mxCell id="iwyEC6983UlKEHwNcQ2G-9" value="+Login_CorrectCreds_ReturnsOkWithToken():&amp;nbsp;Task" style="text;whiteSpace=wrap;html=1;fontColor=default;" parent="iwyEC6983UlKEHwNcQ2G-1" vertex="1">
          <mxGeometry y="150" width="400" height="30" as="geometry" />
        </mxCell>
        <mxCell id="iwyEC6983UlKEHwNcQ2G-15" value="+Login_WrongPassword_ReturnsConflict():&amp;nbsp;Task" style="text;whiteSpace=wrap;html=1;fontColor=default;" parent="iwyEC6983UlKEHwNcQ2G-1" vertex="1">
          <mxGeometry y="180" width="400" height="30" as="geometry" />
        </mxCell>
        <mxCell id="iwyEC6983UlKEHwNcQ2G-17" value="+Register_WeakPassword_ReturnBadRequest():&amp;nbsp;Task" style="text;whiteSpace=wrap;html=1;fontColor=default;" parent="iwyEC6983UlKEHwNcQ2G-1" vertex="1">
          <mxGeometry y="210" width="400" height="30" as="geometry" />
        </mxCell>
        <mxCell id="iwyEC6983UlKEHwNcQ2G-24" style="edgeStyle=orthogonalEdgeStyle;rounded=0;orthogonalLoop=1;jettySize=auto;html=1;fontSize=11;strokeWidth=2;endArrow=diamondThin;endFill=1;endSize=22;" parent="1" source="iwyEC6983UlKEHwNcQ2G-23" target="iwyEC6983UlKEHwNcQ2G-1" edge="1">
          <mxGeometry relative="1" as="geometry">
            <Array as="points">
              <mxPoint x="-680" y="415" />
              <mxPoint x="-680" y="320" />
            </Array>
          </mxGeometry>
        </mxCell>
        <mxCell id="iwyEC6983UlKEHwNcQ2G-28" value="&lt;b&gt;ControlApiDbContextFactory&lt;/b&gt;" style="swimlane;fontStyle=0;childLayout=stackLayout;horizontal=1;startSize=30;horizontalStack=0;resizeParent=1;resizeParentMax=0;resizeLast=0;collapsible=1;marginBottom=0;whiteSpace=wrap;html=1;align=center;labelBackgroundColor=none;fontColor=default;" parent="1" vertex="1">
          <mxGeometry x="-1440" y="-480" width="260" height="60" as="geometry" />
        </mxCell>
        <mxCell id="iwyEC6983UlKEHwNcQ2G-29" value="&lt;span style=&quot;font-family: Helvetica; font-size: 12px; font-style: normal; font-variant-ligatures: normal; font-variant-caps: normal; font-weight: 400; letter-spacing: normal; orphans: 2; text-align: left; text-indent: 0px; text-transform: none; widows: 2; word-spacing: 0px; -webkit-text-stroke-width: 0px; white-space: normal; text-decoration-thickness: initial; text-decoration-style: initial; text-decoration-color: initial; float: none; display: inline !important;&quot;&gt;+CreateDbContext(): ControlApiDbContext&lt;/span&gt;" style="text;whiteSpace=wrap;html=1;labelBackgroundColor=none;fontColor=default;" parent="iwyEC6983UlKEHwNcQ2G-28" vertex="1">
          <mxGeometry y="30" width="260" height="30" as="geometry" />
        </mxCell>
        <mxCell id="iwyEC6983UlKEHwNcQ2G-38" value="&lt;b&gt;SensoringConnector&lt;/b&gt;" style="swimlane;fontStyle=0;childLayout=stackLayout;horizontal=1;startSize=30;horizontalStack=0;resizeParent=1;resizeParentMax=0;resizeLast=0;collapsible=1;marginBottom=0;whiteSpace=wrap;html=1;align=center;labelBackgroundColor=none;fontColor=#990000;" parent="1" vertex="1">
          <mxGeometry x="-1720" y="-980" width="260" height="60" as="geometry">
            <mxRectangle x="-1720" y="-980" width="160" height="30" as="alternateBounds" />
          </mxGeometry>
        </mxCell>
        <mxCell id="iwyEC6983UlKEHwNcQ2G-67" style="edgeStyle=orthogonalEdgeStyle;rounded=0;orthogonalLoop=1;jettySize=auto;html=1;fillColor=#60a917;strokeColor=#2D7600;strokeWidth=2;endArrow=block;endFill=0;endSize=22;" parent="1" source="iwyEC6983UlKEHwNcQ2G-44" target="iwyEC6983UlKEHwNcQ2G-46" edge="1">
          <mxGeometry relative="1" as="geometry" />
        </mxCell>
        <mxCell id="iwyEC6983UlKEHwNcQ2G-70" style="edgeStyle=orthogonalEdgeStyle;rounded=0;orthogonalLoop=1;jettySize=auto;html=1;fillColor=#60a917;strokeColor=#2D7600;strokeWidth=2;endArrow=diamondThin;endFill=1;endSize=22;" parent="1" source="iwyEC6983UlKEHwNcQ2G-44" target="iwyEC6983UlKEHwNcQ2G-38" edge="1">
          <mxGeometry relative="1" as="geometry">
            <Array as="points">
              <mxPoint x="-1630" y="-550" />
            </Array>
          </mxGeometry>
        </mxCell>
        <mxCell id="iwyEC6983UlKEHwNcQ2G-71" style="edgeStyle=orthogonalEdgeStyle;rounded=0;orthogonalLoop=1;jettySize=auto;html=1;strokeWidth=2;endArrow=diamondThin;endFill=1;endSize=22;fillColor=#0050ef;strokeColor=#001DBC;" parent="1" target="iwyEC6983UlKEHwNcQ2G-73" edge="1">
          <mxGeometry relative="1" as="geometry">
            <mxPoint x="-1310" y="-740" as="targetPoint" />
            <mxPoint x="-1740" y="-560" as="sourcePoint" />
            <Array as="points">
              <mxPoint x="-1740" y="-510" />
              <mxPoint x="-1499" y="-510" />
              <mxPoint x="-1499" y="-710" />
              <mxPoint x="-1310" y="-710" />
            </Array>
          </mxGeometry>
        </mxCell>
        <mxCell id="iwyEC6983UlKEHwNcQ2G-44" value="&lt;b&gt;TempDetection&lt;/b&gt;" style="swimlane;fontStyle=0;childLayout=stackLayout;horizontal=1;startSize=30;horizontalStack=0;resizeParent=1;resizeParentMax=0;resizeLast=0;collapsible=1;marginBottom=0;whiteSpace=wrap;html=1;align=center;labelBackgroundColor=none;fontColor=default;" parent="1" vertex="1">
          <mxGeometry x="-2000" y="-600" width="260" height="120" as="geometry" />
        </mxCell>
        <mxCell id="iwyEC6983UlKEHwNcQ2G-61" value="+predictions:&amp;nbsp;ICollection&amp;lt;Prediction&amp;gt;?" style="text;whiteSpace=wrap;html=1;fontColor=default;" parent="iwyEC6983UlKEHwNcQ2G-44" vertex="1">
          <mxGeometry y="30" width="260" height="30" as="geometry" />
        </mxCell>
        <mxCell id="iwyEC6983UlKEHwNcQ2G-62" value="+detectionPOIs:&amp;nbsp;ICollection&amp;lt;DetectionPOI&amp;gt;?" style="text;whiteSpace=wrap;html=1;fontColor=default;" parent="iwyEC6983UlKEHwNcQ2G-44" vertex="1">
          <mxGeometry y="60" width="260" height="30" as="geometry" />
        </mxCell>
        <mxCell id="iwyEC6983UlKEHwNcQ2G-63" value="+ConvertToDetection(): Detection" style="text;whiteSpace=wrap;html=1;fontColor=default;" parent="iwyEC6983UlKEHwNcQ2G-44" vertex="1">
          <mxGeometry y="90" width="260" height="30" as="geometry" />
        </mxCell>
        <mxCell id="iwyEC6983UlKEHwNcQ2G-46" value="RawDetection" style="swimlane;childLayout=stackLayout;horizontal=1;startSize=30;horizontalStack=0;resizeParent=1;resizeParentMax=0;resizeLast=0;collapsible=1;marginBottom=0;whiteSpace=wrap;html=1;align=center;fontColor=default;" parent="1" vertex="1">
          <mxGeometry x="-2420" y="-1110" width="260" height="330" as="geometry" />
        </mxCell>
        <mxCell id="iwyEC6983UlKEHwNcQ2G-47" value="+detectionId: int" style="text;whiteSpace=wrap;html=1;fontColor=default;" parent="iwyEC6983UlKEHwNcQ2G-46" vertex="1">
          <mxGeometry y="30" width="260" height="30" as="geometry" />
        </mxCell>
        <mxCell id="iwyEC6983UlKEHwNcQ2G-48" value="+trashType: string" style="text;whiteSpace=wrap;html=1;fontColor=default;" parent="iwyEC6983UlKEHwNcQ2G-46" vertex="1">
          <mxGeometry y="60" width="260" height="30" as="geometry" />
        </mxCell>
        <mxCell id="iwyEC6983UlKEHwNcQ2G-49" value="+timeStamp: DateTime" style="text;whiteSpace=wrap;html=1;fontColor=default;" parent="iwyEC6983UlKEHwNcQ2G-46" vertex="1">
          <mxGeometry y="90" width="260" height="30" as="geometry" />
        </mxCell>
        <mxCell id="iwyEC6983UlKEHwNcQ2G-50" value="+confidence: float" style="text;whiteSpace=wrap;html=1;fontColor=default;" parent="iwyEC6983UlKEHwNcQ2G-46" vertex="1">
          <mxGeometry y="120" width="260" height="30" as="geometry" />
        </mxCell>
        <mxCell id="iwyEC6983UlKEHwNcQ2G-51" value="+latitude: float?" style="text;whiteSpace=wrap;html=1;fontColor=default;" parent="iwyEC6983UlKEHwNcQ2G-46" vertex="1">
          <mxGeometry y="150" width="260" height="30" as="geometry" />
        </mxCell>
        <mxCell id="iwyEC6983UlKEHwNcQ2G-52" value="+longitude: float?" style="text;whiteSpace=wrap;html=1;fontColor=default;" parent="iwyEC6983UlKEHwNcQ2G-46" vertex="1">
          <mxGeometry y="180" width="260" height="30" as="geometry" />
        </mxCell>
        <mxCell id="iwyEC6983UlKEHwNcQ2G-53" value="+feelsLikeTempC:&amp;nbsp;float?" style="text;whiteSpace=wrap;html=1;fontColor=default;" parent="iwyEC6983UlKEHwNcQ2G-46" vertex="1">
          <mxGeometry y="210" width="260" height="30" as="geometry" />
        </mxCell>
        <mxCell id="iwyEC6983UlKEHwNcQ2G-54" value="+actualTempC:&amp;nbsp;float?" style="text;whiteSpace=wrap;html=1;fontColor=default;" parent="iwyEC6983UlKEHwNcQ2G-46" vertex="1">
          <mxGeometry y="240" width="260" height="30" as="geometry" />
        </mxCell>
        <mxCell id="iwyEC6983UlKEHwNcQ2G-55" value="+windForceBft:&amp;nbsp;float?" style="text;whiteSpace=wrap;html=1;fontColor=default;" parent="iwyEC6983UlKEHwNcQ2G-46" vertex="1">
          <mxGeometry y="270" width="260" height="30" as="geometry" />
        </mxCell>
        <mxCell id="iwyEC6983UlKEHwNcQ2G-56" value="+windDirection:&amp;nbsp;float?" style="text;whiteSpace=wrap;html=1;fontColor=default;" parent="iwyEC6983UlKEHwNcQ2G-46" vertex="1">
          <mxGeometry y="300" width="260" height="30" as="geometry" />
        </mxCell>
        <mxCell id="iwyEC6983UlKEHwNcQ2G-72" style="edgeStyle=orthogonalEdgeStyle;rounded=0;orthogonalLoop=1;jettySize=auto;html=1;strokeWidth=2;endArrow=diamondThin;endFill=1;endSize=22;fillColor=#0050ef;strokeColor=#001DBC;" parent="1" source="iwyEC6983UlKEHwNcQ2G-44" target="iwyEC6983UlKEHwNcQ2G-74" edge="1">
          <mxGeometry relative="1" as="geometry">
            <mxPoint x="-1510" y="-850" as="targetPoint" />
            <mxPoint x="-1590" y="-630" as="sourcePoint" />
            <Array as="points">
              <mxPoint x="-1550" y="-510" />
              <mxPoint x="-1550" y="-790" />
              <mxPoint x="-1510" y="-790" />
              <mxPoint x="-1510" y="-880" />
            </Array>
          </mxGeometry>
        </mxCell>
        <mxCell id="iwyEC6983UlKEHwNcQ2G-73" value="&lt;b&gt;SensoringDataGrabber&lt;/b&gt;" style="swimlane;fontStyle=0;childLayout=stackLayout;horizontal=1;startSize=30;horizontalStack=0;resizeParent=1;resizeParentMax=0;resizeLast=0;collapsible=1;marginBottom=0;whiteSpace=wrap;html=1;align=center;labelBackgroundColor=none;fontColor=#990000;" parent="1" vertex="1">
          <mxGeometry x="-1440" y="-800" width="260" height="60" as="geometry" />
        </mxCell>
        <mxCell id="iwyEC6983UlKEHwNcQ2G-74" value="&lt;b&gt;SensoringConvertor&lt;/b&gt;" style="swimlane;fontStyle=0;childLayout=stackLayout;horizontal=1;startSize=30;horizontalStack=0;resizeParent=1;resizeParentMax=0;resizeLast=0;collapsible=1;marginBottom=0;whiteSpace=wrap;html=1;align=center;labelBackgroundColor=none;fontColor=#990000;" parent="1" vertex="1">
          <mxGeometry x="-1380" y="-910" width="260" height="60" as="geometry" />
        </mxCell>
        <mxCell id="7S8ZCQFVZ5OZvFziOqp5-1" value="PredictEndp&lt;span style=&quot;background-color: transparent; color: light-dark(rgb(0, 0, 0), rgb(255, 255, 255));&quot;&gt;oint&lt;/span&gt;" style="swimlane;childLayout=stackLayout;horizontal=1;startSize=30;horizontalStack=0;resizeParent=1;resizeParentMax=0;resizeLast=0;collapsible=1;marginBottom=0;whiteSpace=wrap;html=1;align=center;fontColor=default;" parent="1" vertex="1">
          <mxGeometry x="-3040" y="-1000" width="480" height="120" as="geometry" />
        </mxCell>
        <mxCell id="qPCDG-oTBwNx-kwBJD31-1" value="-_db: ControlApiDbContext" style="text;whiteSpace=wrap;html=1;fontColor=default;" vertex="1" parent="7S8ZCQFVZ5OZvFziOqp5-1">
          <mxGeometry y="30" width="480" height="30" as="geometry" />
        </mxCell>
        <mxCell id="qPCDG-oTBwNx-kwBJD31-5" value="-_python: IPredictionApiClient" style="text;whiteSpace=wrap;html=1;fontColor=default;" vertex="1" parent="7S8ZCQFVZ5OZvFziOqp5-1">
          <mxGeometry y="60" width="480" height="30" as="geometry" />
        </mxCell>
        <mxCell id="qPCDG-oTBwNx-kwBJD31-2" value="+Calender(DateOnly, CancellationToken): Task&amp;lt;ActionResult&amp;lt;CalenderPredictionDto&amp;gt;&amp;gt;" style="text;whiteSpace=wrap;html=1;fontColor=default;" vertex="1" parent="7S8ZCQFVZ5OZvFziOqp5-1">
          <mxGeometry y="90" width="480" height="30" as="geometry" />
        </mxCell>
        <mxCell id="qPCDG-oTBwNx-kwBJD31-4" style="edgeStyle=orthogonalEdgeStyle;rounded=0;orthogonalLoop=1;jettySize=auto;html=1;strokeWidth=2;endSize=22;endArrow=diamondThin;endFill=1;" edge="1" parent="1" source="qPCDG-oTBwNx-kwBJD31-3" target="7S8ZCQFVZ5OZvFziOqp5-1">
          <mxGeometry relative="1" as="geometry">
            <Array as="points">
              <mxPoint x="-3310" y="-940" />
            </Array>
          </mxGeometry>
        </mxCell>
        <mxCell id="qPCDG-oTBwNx-kwBJD31-3" value="&lt;span style=&quot;text-align: left;&quot;&gt;IPredictionApiClient&lt;/span&gt;" style="swimlane;fontStyle=0;childLayout=stackLayout;horizontal=1;startSize=30;horizontalStack=0;resizeParent=1;resizeParentMax=0;resizeLast=0;collapsible=1;marginBottom=0;whiteSpace=wrap;html=1;align=center;labelBackgroundColor=none;fontColor=#FF0000;" vertex="1" parent="1">
          <mxGeometry x="-3420" y="-880" width="260" height="60" as="geometry">
            <mxRectangle x="-1720" y="-980" width="160" height="30" as="alternateBounds" />
          </mxGeometry>
        </mxCell>
        <mxCell id="qPCDG-oTBwNx-kwBJD31-13" style="edgeStyle=orthogonalEdgeStyle;rounded=0;orthogonalLoop=1;jettySize=auto;html=1;strokeWidth=2;endArrow=diamondThin;endFill=1;endSize=22;" edge="1" parent="1" source="qPCDG-oTBwNx-kwBJD31-7" target="qPCDG-oTBwNx-kwBJD31-12">
          <mxGeometry relative="1" as="geometry" />
        </mxCell>
        <mxCell id="qPCDG-oTBwNx-kwBJD31-7" value="&lt;div style=&quot;text-align: left;&quot;&gt;&lt;span style=&quot;background-color: transparent;&quot;&gt;CalendarPredictionBatchResponse&lt;/span&gt;&lt;/div&gt;" style="swimlane;fontStyle=0;childLayout=stackLayout;horizontal=1;startSize=30;horizontalStack=0;resizeParent=1;resizeParentMax=0;resizeLast=0;collapsible=1;marginBottom=0;whiteSpace=wrap;html=1;align=center;labelBackgroundColor=none;fontColor=#FF0000;" vertex="1" parent="1">
          <mxGeometry x="-3780" y="-960" width="260" height="60" as="geometry">
            <mxRectangle x="-1720" y="-980" width="160" height="30" as="alternateBounds" />
          </mxGeometry>
        </mxCell>
        <mxCell id="qPCDG-oTBwNx-kwBJD31-11" style="edgeStyle=orthogonalEdgeStyle;rounded=0;orthogonalLoop=1;jettySize=auto;html=1;strokeWidth=2;endSize=22;endArrow=diamondThin;endFill=1;" edge="1" parent="1" source="qPCDG-oTBwNx-kwBJD31-8" target="7S8ZCQFVZ5OZvFziOqp5-1">
          <mxGeometry relative="1" as="geometry" />
        </mxCell>
        <mxCell id="qPCDG-oTBwNx-kwBJD31-8" value="&lt;div style=&quot;text-align: left;&quot;&gt;&lt;span style=&quot;background-color: transparent;&quot;&gt;CalendarFeaturesRequest&lt;/span&gt;&lt;/div&gt;" style="swimlane;fontStyle=0;childLayout=stackLayout;horizontal=1;startSize=30;horizontalStack=0;resizeParent=1;resizeParentMax=0;resizeLast=0;collapsible=1;marginBottom=0;whiteSpace=wrap;html=1;align=center;labelBackgroundColor=none;fontColor=#FF0000;" vertex="1" parent="1">
          <mxGeometry x="-3700" y="-1060" width="260" height="60" as="geometry">
            <mxRectangle x="-1720" y="-980" width="160" height="30" as="alternateBounds" />
          </mxGeometry>
        </mxCell>
        <mxCell id="qPCDG-oTBwNx-kwBJD31-10" style="edgeStyle=orthogonalEdgeStyle;rounded=0;orthogonalLoop=1;jettySize=auto;html=1;strokeWidth=2;endArrow=diamondThin;endFill=1;endSize=22;" edge="1" parent="1" source="qPCDG-oTBwNx-kwBJD31-9" target="7S8ZCQFVZ5OZvFziOqp5-1">
          <mxGeometry relative="1" as="geometry">
            <Array as="points">
              <mxPoint x="-3170" y="-1110" />
              <mxPoint x="-3170" y="-940" />
            </Array>
          </mxGeometry>
        </mxCell>
        <mxCell id="qPCDG-oTBwNx-kwBJD31-9" value="&lt;div style=&quot;text-align: left;&quot;&gt;&lt;span style=&quot;background-color: transparent;&quot;&gt;CalendarPredictionDto&lt;/span&gt;&lt;/div&gt;" style="swimlane;fontStyle=0;childLayout=stackLayout;horizontal=1;startSize=30;horizontalStack=0;resizeParent=1;resizeParentMax=0;resizeLast=0;collapsible=1;marginBottom=0;whiteSpace=wrap;html=1;align=center;labelBackgroundColor=none;fontColor=#FF0000;" vertex="1" parent="1">
          <mxGeometry x="-3700" y="-1140" width="260" height="60" as="geometry">
            <mxRectangle x="-1720" y="-980" width="160" height="30" as="alternateBounds" />
          </mxGeometry>
        </mxCell>
        <mxCell id="qPCDG-oTBwNx-kwBJD31-12" value="&lt;span style=&quot;text-align: left;&quot;&gt;PredictionApiClient&lt;/span&gt;" style="swimlane;fontStyle=0;childLayout=stackLayout;horizontal=1;startSize=30;horizontalStack=0;resizeParent=1;resizeParentMax=0;resizeLast=0;collapsible=1;marginBottom=0;whiteSpace=wrap;html=1;align=center;labelBackgroundColor=none;fontColor=#FF0000;" vertex="1" parent="1">
          <mxGeometry x="-3780" y="-800" width="260" height="60" as="geometry">
            <mxRectangle x="-1720" y="-980" width="160" height="30" as="alternateBounds" />
          </mxGeometry>
        </mxCell>
      </root>
    </mxGraphModel>
  </diagram>
</mxfile>
